<svg xmlns="http://www.w3.org/2000/svg" width="60" height="60" viewBox="0 0 60 60"><defs><clipPath id="a"><path data-name="Rectangle 7774" transform="translate(1412 136)" fill="#b9994d" stroke="#707070" opacity=".5" d="M0 0h60v60H0z"/></clipPath></defs><g data-name="Mask Group 433" transform="translate(-1412 -136)" clip-path="url(#a)"><path data-name="Path 13488" d="M1465.329 173.361a1.524 1.524 0 00-.373-.688 3.573 3.573 0 00.014-1.462 10.073 10.073 0 01-.516-1.95c.029-.616.545-1.176.731-1.806a4.493 4.493 0 00-.645-3.986.61.61 0 01-.086-.674 4.422 4.422 0 00-.3-4.143 3.34 3.34 0 00.158-.4 4.493 4.493 0 00-.645-3.986.61.61 0 01-.086-.674 4.157 4.157 0 00-3-5.892 9.768 9.768 0 00-1.835.1.316.316 0 01-.115.014h-.072a.529.529 0 01-.373-.115 6.427 6.427 0 00-2.652-1.634 4.271 4.271 0 00-2.165 0c-.516.244-1 .487-1.52.731a5.779 5.779 0 00-2.538-2.667 5.894 5.894 0 00-.6-.3v-.217a3.24 3.24 0 00-.014-.373c-.1-1.348-.774-1.821-2.108-1.606-.8.129-1.62.186-2.495.287v-.573c0-1.434.014-2.853-.014-4.287-.013-.932-.17-1.061-1.074-1.061-1.147.014-2.28.043-3.427.1-.158 0-.43.129-.459.244a7.759 7.759 0 00-.487 3.24c.158.875.2 1.763.3 2.609-.76.1-1.448.186-2.151.258a1.514 1.514 0 00-1.09.545 4.8 4.8 0 00-6.022 2.495c-.258.545-.53.832-1.133.774h-.115a.364.364 0 01-.172.029c-.115.014-.244.043-.373.072a16.275 16.275 0 00-1.591.846 4.936 4.936 0 00-2.079 5.161c-.43.043-.86.086-1.333.143a4.534 4.534 0 00-1.362.473c-.043.029-.1.057-.158.1a5.488 5.488 0 00-3.355 5.3 3.684 3.684 0 001.121 2.6.946.946 0 01.272.8 10.061 10.061 0 00.1 2.079 3.146 3.146 0 00.186.588 5.359 5.359 0 00-.817 3.125 3.684 3.684 0 001.118 2.595.946.946 0 01.272.8c0 .487-.014.975.014 1.462a1.422 1.422 0 00-1.316 1.354c-.086.76-.186 1.52-.315 2.265-.214 1.405.315 1.964 1.734 1.835a2.82 2.82 0 01.344-.043c.746 0 1.491-.043 2.222 0 1.118.072 2.237.215 3.355.33.244.029.473.057.717.072-.029.2-.043.33-.072.459-.7 3.828-1.434 7.642-2.079 11.47a30.163 30.163 0 00-.287 4.1c-.029.961.344 1.29 1.276 1.391.789.086 1.577.215 2.366.33h1.61c.143-.043.287-.115.43-.143a1.82 1.82 0 001.491-1.419c.358-1.677.659-3.355.946-5.047a14.453 14.453 0 00.129-1.821h7.986c-.043.688-.086 1.262-.086 1.821 0 .789.373 1.147 1.161 1.147.989 0 1.978-.029 2.968-.029a.959.959 0 001.018-.674c.229-.746.43-1.505.66-2.308 1.907-.215 3.986-.459 6.05-.688.043.143.086.215.1.287.287 1.864.6 3.713.86 5.591a9.946 9.946 0 01.029 1.849c-.043.731.315 1.219 1.047 1.176a46.288 46.288 0 003.7-.344 1.586 1.586 0 001.411-1.836 317.988 317.988 0 00-.573-6.366c-.244-2.351-.53-4.688-.8-7.039-.029-.229-.072-.473-.086-.616 1.706-.315 3.34-.645 4.989-.932a2.722 2.722 0 011.075.043.725.725 0 00.975-.43 2.637 2.637 0 00.229-.588 10.25 10.25 0 00-.2-4.273zm-3.785-1.19c-.4-.014-.817 0-1.262 0v-.014c-1.09.029-2.237.158-2.237.158a.621.621 0 00-.072.014 29.024 29.024 0 01-5.577.358c-2.538-.029-5.075.043-7.6.043-.6 0-1.219-.086-1.821-.1-2.8-.014-5.606.029-8.4-.043-1.935-.043-3.885-.186-5.821-.373l-.33-.043h-.072a.28.28 0 01-.1-.014h-.029c-.129-.014-.258-.043-.387-.057a20.055 20.055 0 00-4.129.057 1.429 1.429 0 01-.229.029c-.789.072-1.577.129-2.366.186l-.043-.258a9.084 9.084 0 01-.014-1.09 5.512 5.512 0 005.591-.8c2.853 3.584 8.53 1.749 9.376-1.262a10.073 10.073 0 007.211 1.692 4.368 4.368 0 002.839-1.677 3.657 3.657 0 003.47 2.007 23.416 23.416 0 003.326.029 4.677 4.677 0 002.824-1.319c1.391 2.065 5.018 2.552 7.656.616a4.041 4.041 0 01.229 1.964 78.833 78.833 0 00-2.033-.103zm-36.473-10.609c-.057 0-.115.014-.186.014a1.069 1.069 0 00.172-.1.252.252 0 01.014.086zm7.039-10.524a3.937 3.937 0 013.41-4.587 4.079 4.079 0 012.007.229 4.264 4.264 0 01.817.387 6.381 6.381 0 011 .76 9.434 9.434 0 012.176 2.738c-.717.129-1.419.272-2.151.4-.1-.4-.172-.76-.287-1.118a3.08 3.08 0 00-1.792-1.907 2.684 2.684 0 00-.817-.172 3.257 3.257 0 00-.746.043 2.314 2.314 0 00-1.649 3.24 1.635 1.635 0 00.989.875c.172 0 .358.029.53.043a1.24 1.24 0 00.33-.086 1.076 1.076 0 00.416-1.763.817.817 0 00-.731-.172.533.533 0 00-.172.832 1.873 1.873 0 00.172.215c-.444.3-.659.014-.817-.3a1.419 1.419 0 011.2-1.921 1.787 1.787 0 011.591.487 9.709 9.709 0 01.961 1.405c.2.33.129.545-.244.76a4.771 4.771 0 00-1.29 1.018 6.364 6.364 0 00-.659.846c-.143.215-.287.459-.416.688a.509.509 0 01-.76.272 5.751 5.751 0 01-1.749-.975 3.535 3.535 0 01-.731-.8 3.405 3.405 0 01-.588-1.437zm10.136-8.4a2.363 2.363 0 01.645.158 2.25 2.25 0 011.032.817 5.154 5.154 0 00-2.925 2.71 4.565 4.565 0 00-.315 1.032c-.444-.315-.889-.6-1.333-.918-.358-.258-.717-.516-1.061-.789a3.45 3.45 0 01-.587-1.049 10.5 10.5 0 012.218-1.546 3.986 3.986 0 012.327-.416zm6.366 10.121a.109.109 0 00.057-.029 5.049 5.049 0 015.751 2.136c.072.115.129.229.186.344a3.469 3.469 0 01.315.889 3.726 3.726 0 01-.229 2.351c-.057.143-.129.272-.2.416a3.4 3.4 0 01-1 1.19 3.146 3.146 0 01-1.276.573h-.029a12.716 12.716 0 01-3.125.229c-.5-.029-1.018-.072-1.52-.143a3.359 3.359 0 01-1.176-.487c-.746-.444-.832-.8-.5-1.577a6.808 6.808 0 00.244-.7c.072-.244.129-.473.215-.8a5.046 5.046 0 00.889.932 4.756 4.756 0 00.76.473c.057.029.129.057.186.086a3.591 3.591 0 001.19.244 4.936 4.936 0 001.018-.072 3.062 3.062 0 001.606-.846 2.446 2.446 0 00.717-1.462 1.61 1.61 0 00-.029-.588 1.971 1.971 0 00-.875-1.276 2.066 2.066 0 00-.717-.272 1.648 1.648 0 00-.53.014.594.594 0 00-.373.244.686.686 0 00-.086.487.528.528 0 00.645.487 2.194 2.194 0 01.43-.014.41.41 0 01.387.315 2.075 2.075 0 01.057.43 1.453 1.453 0 01-.129.674 2.151 2.151 0 01-1.835.989 2.738 2.738 0 01-.832-.086c-.014 0-.043-.014-.057-.014a2.621 2.621 0 01-1.727-1.397 2.461 2.461 0 01-.215-.8c0-.057-.014-.1-.014-.158a2.674 2.674 0 01.616-1.935 2.918 2.918 0 011.205-.847zm10.724 9.548a3.62 3.62 0 01-1.333 1.032c-.459.2-.932.344-1.448.545a6.725 6.725 0 00-2.335-2.451.477.477 0 01-.158-.3v-.014a6.23 6.23 0 00.774-.6 4.834 4.834 0 004.5 1.788zm4.631 4.674a4.836 4.836 0 01-6.466 3.269 4.11 4.11 0 01-.688-.4c-.645-.473-.66-.588-.315-1.29.086-.172.158-.358.229-.545s.129-.358.215-.616a3.027 3.027 0 002.578 1.13 2.808 2.808 0 002.523-2.323 1.752 1.752 0 00-.023-.472 1.376 1.376 0 00-.76-.989.808.808 0 00-.172-.057 1.3 1.3 0 00-1.068.128.818.818 0 00-.2.186c-.129.172-.215.573-.115.674.143.158.473.158.731.186a1.8 1.8 0 00.473-.072l.043.215a.889.889 0 01.029.387 2.048 2.048 0 01-2.437 1.333 1.952 1.952 0 01-1.505-1.663c-.014-.072-.014-.143-.029-.229-.014-.3-.057-.6-.1-.918.186-.029.358-.057.53-.1a4.937 4.937 0 003.054-2.208c.387.086.789.158 1.176.272a3.634 3.634 0 01.918.444 3.505 3.505 0 011.376 3.656zm-27.211-.444l.086-.5a10.042 10.042 0 01.3-1.075 11.132 11.132 0 011.047-2.163 5 5 0 00-.129 2.151 4.7 4.7 0 00.272.946.67.67 0 00.072.143 2.859 2.859 0 002.9 1.806 3.19 3.19 0 002.416-1.81 3.358 3.358 0 00.287-.932.817.817 0 00.013-.186 2.247 2.247 0 00-2.136-2.437 1.482 1.482 0 00-1.376.875 1.587 1.587 0 00.072 1.577c.029.029.043.072.072.1.215.315.516.459.86.2a.753.753 0 00.244-.3.618.618 0 00-.143-.573.705.705 0 01-.1-.616.9.9 0 01.631-.287c.645.014 1.075.674.989 1.462v.014a2.335 2.335 0 01-.444 1.118 2.252 2.252 0 01-1.735.946 2.014 2.014 0 01-1.663-.946 2.53 2.53 0 01-.416-1.032.108.108 0 00-.014-.057 3.554 3.554 0 011.434-3.441 14.248 14.248 0 002.065-.057 3.324 3.324 0 001.133-.315 3.6 3.6 0 012.136 2.667 5.83 5.83 0 01.143 1.09 6.166 6.166 0 01-.072 1.147 6.346 6.346 0 01-.43 1.434 3.332 3.332 0 01-3.842 2.065 19.569 19.569 0 01-3.556-.989 1.654 1.654 0 01-1.116-2.025zm-1.792-6.251a3.368 3.368 0 00.2-.53 8.481 8.481 0 001.993 1.09 12.114 12.114 0 001.161.373 6.768 6.768 0 00-1.505 1.964.509.509 0 01-.76.272 5.006 5.006 0 01-2.394-1.649 4.254 4.254 0 001.304-1.52zm10.251-.5a3.308 3.308 0 002.552 1.892 3.7 3.7 0 00-.8 1.19c-.588-.789-1.219-1.577-1.792-2.394a2.739 2.739 0 01-.229-.387c.082-.088.182-.203.268-.303zm1.505 8.041a6.022 6.022 0 00.244-.717c.072-.244.129-.473.215-.789a3.909 3.909 0 004.057 1.649 2.866 2.866 0 002.237-1.921 3.669 3.669 0 00.072-.387 1.958 1.958 0 00-1.606-2.136 1.328 1.328 0 00-.53.029.583.583 0 00-.459.731.528.528 0 00.645.487.924.924 0 01.688.086.394.394 0 01.129.215 1.874 1.874 0 01-.014.975.509.509 0 01-.057.129 2.381 2.381 0 01-2.71.889 2.639 2.639 0 01-1.511-1.018 2.421 2.421 0 01-.43-1.161c0-.057-.014-.115-.014-.172a2.674 2.674 0 011.806-2.753c.1-.043.215-.072.315-.115a4.437 4.437 0 012.294-.029 5.066 5.066 0 013.2 2.251 6.19 6.19 0 01.373.76 3.6 3.6 0 01.229 1.219 4.067 4.067 0 01-.516 2.007 3.256 3.256 0 01-2.308 1.763 12.973 12.973 0 01-4.645.072 3.36 3.36 0 01-1.176-.487c-.758-.444-.844-.789-.528-1.577zm15.541-6.108a5.125 5.125 0 00-.5-.143 7.434 7.434 0 00.717-.444 7.431 7.431 0 01.2.76 2.551 2.551 0 00-.417-.173zm-16.158-8.043c-.014-.029-.043-.057-.057-.086.029 0 .072-.014.1-.014a.7.7 0 00-.043.1zm-1.964-.545a4.49 4.49 0 01.473.9 3.789 3.789 0 01.172.573 5.739 5.739 0 01.072 2.151 6.027 6.027 0 01-.444 1.534 4.653 4.653 0 01-.5.875 4.238 4.238 0 01-.559.573 3.476 3.476 0 01-2.781.616 13.405 13.405 0 01-1.032-.2 19.38 19.38 0 01-2.194-.674c-.115-.043-.215-.072-.33-.115a1.719 1.719 0 01-.459-.229 1.576 1.576 0 01-.6-.7 1.935 1.935 0 01-.086-1.09c0-.029.014-.057.014-.086a8.809 8.809 0 01.416-1.606 11.424 11.424 0 01.573-1.29 5.332 5.332 0 01.272-.487 2.662 2.662 0 00.158-.272c-.029.115-.057.244-.086.358-.029.143-.057.272-.072.4a4.543 4.543 0 000 1.247 3.872 3.872 0 00.3 1.09c.043.1.086.186.129.272a2.957 2.957 0 002.179 1.663 2.538 2.538 0 00.659 0 2.831 2.831 0 001.018-.33 3.253 3.253 0 00.86-.674 3.21 3.21 0 00.817-1.735 2.538 2.538 0 000-.659 2.592 2.592 0 00-.4-1.032 2 2 0 00-1.706-.918 1.482 1.482 0 00-1.376.875 1.585 1.585 0 00-.158.946 1.624 1.624 0 00.3.731c.215.315.516.459.86.2a.252.252 0 00.072-.057.561.561 0 00.043-.832.705.705 0 01-.1-.616.845.845 0 01.631-.287.96.96 0 01.889.674 1.581 1.581 0 01.1.789 2.392 2.392 0 01-1.419 1.907 2 2 0 01-.76.158 2.262 2.262 0 01-2.081-1.975.086.086 0 00-.014-.057 3.49 3.49 0 012.638-3.971 3.415 3.415 0 011.62.043 3.29 3.29 0 011.892 1.318zm-11.771.789a4.662 4.662 0 001.892 1.2 6.22 6.22 0 00.889.229q-.151.43-.3.817c-.072.2-.143.387-.215.588a4.271 4.271 0 01-.244-.272c-.158-.172-.315-.344-.473-.487a8.094 8.094 0 00-.387-.33 4.464 4.464 0 00-2.022-.918 3.574 3.574 0 00-.961-.014l-.3.043a2.813 2.813 0 00-1.52.817 2.492 2.492 0 00-.688 1.448 2.414 2.414 0 00.115 1 .877.877 0 00.072.172 1.814 1.814 0 00.53.688 1.777 1.777 0 001.2.43 2.063 2.063 0 001.491-.717 1.8 1.8 0 00.344-.573c0-.014.014-.029.014-.043a.625.625 0 00-.4-.9.642.642 0 00-.8.229.685.685 0 00-.086.258.909.909 0 01-.229.5.767.767 0 01-.459.215.85.85 0 01-.387-.043 1.036 1.036 0 01-.5-.516.768.768 0 01-.072-.158 1.235 1.235 0 01.029-.932 1.178 1.178 0 01.229-.358 2.091 2.091 0 011.835-.717 3.773 3.773 0 012.8 1.563c.043.057.086.129.143.2a2.159 2.159 0 01-.115 2.7 3.59 3.59 0 01-.659.66 5.006 5.006 0 01-1.391.76 5.406 5.406 0 01-.86.229 4.951 4.951 0 01-1.778.029 3.8 3.8 0 01-1.319-.459 3.459 3.459 0 01-1.634-1.935 4.2 4.2 0 01-.215-1.376c0-.143.014-.287.029-.43.272-2.308 2.681-4.946 4.9-5.276.172-.029.473.043.53.158a5.329 5.329 0 00.387.688 2.987 2.987 0 00.585.833zm-4.4 8.717c-.186.172-.358.33-.53.516a2.853 2.853 0 01-1.262-1.692 4.923 4.923 0 001.791 1.176zm-.6 2.38a7.4 7.4 0 011.62-2.093 6.282 6.282 0 003.67-.53 4.89 4.89 0 003.355 2.165c-.057.143-.1.287-.158.43a43.9 43.9 0 01-.358.989c-.244-.258-.473-.53-.731-.76l-.258-.215a4.071 4.071 0 00-3.427-.989 2.825 2.825 0 00-1.692 1.018 2.342 2.342 0 00-.473 1.032 2.092 2.092 0 00.086 1.219 1.891 1.891 0 001.792 1.29 2.042 2.042 0 001.849-1.319.68.68 0 10-1.29-.416.754.754 0 01-.688.7.843.843 0 01-.889-.559 1.253 1.253 0 01-.1-.932 1.531 1.531 0 01.287-.516 2.021 2.021 0 01.659-.516 2.274 2.274 0 011.176-.215 4.078 4.078 0 01.961.2 3.722 3.722 0 011.577 1.047 4.932 4.932 0 01.4.516 2.159 2.159 0 01-.115 2.7 5.005 5.005 0 01-6.007 1.219 3.585 3.585 0 01-1.849-3.3 4.048 4.048 0 01.172-1.147 8.62 8.62 0 01.428-1.018zm36.352-4.186a2.458 2.458 0 01-.143-.774.244.244 0 01.014-.1 3.077 3.077 0 01.129.874zm-.588-3.24c-.014.072-.029.129-.043.2a4.33 4.33 0 01-.287.86 4.651 4.651 0 01-1.778 1.978 5.148 5.148 0 01-1.176.545 4.571 4.571 0 01-2.366.143 3.983 3.983 0 01-.86-.272 4.11 4.11 0 01-.688-.4.313.313 0 01-.072-.057c-.573-.43-.573-.559-.229-1.233a3.655 3.655 0 00.186-.416.51.51 0 01.057-.129c.072-.172.129-.358.215-.616a3.242 3.242 0 001.706 1.075 2.934 2.934 0 00.875.057 2.178 2.178 0 00.731-.172 3.083 3.083 0 00.946-.588 2.562 2.562 0 00.616-.8 2.114 2.114 0 00.229-.76v-.115a1.414 1.414 0 00-.789-1.348 1.252 1.252 0 00-1.434.244c-.129.172-.215.573-.115.674.143.158.473.158.731.186a2.7 2.7 0 00.473-.072c.014.115.057.244.086.373a.616.616 0 010 .229 1.866 1.866 0 01-1.2 1.247 2.14 2.14 0 01-1.233.086 1.961 1.961 0 01-1.52-1.892 3.018 3.018 0 00-.029-.358c-.014-.186-.043-.358-.072-.545a4.661 4.661 0 00.932-.215 5.052 5.052 0 002.652-2.093c.387.086.789.158 1.176.272a3.345 3.345 0 012.283 3.911zm-.961-7.885a3.064 3.064 0 01.33 3.326c-.373-.172-.731-.373-1.1-.516s-.789-.186-1.262-.3a4.778 4.778 0 00-1.147-3.584 3.211 3.211 0 013.183 1.073zm-9.979-1.663a.751.751 0 01.3-.516 2.86 2.86 0 013.14-.315 6.205 6.205 0 013.226 3.455 2.75 2.75 0 01-1.72 3.484c-.459.2-.932.344-1.448.545a6.725 6.725 0 00-2.337-2.452.477.477 0 01-.158-.3 2.149 2.149 0 011.534-2.151 1.256 1.256 0 011.577.989.86.86 0 01-.129.487c-.029.043-.258-.086-.387-.072a1.458 1.458 0 00-.717.129c-.086.057-.057.444.043.6a1.047 1.047 0 001.864-.186 2.014 2.014 0 00-1.032-2.652 2.5 2.5 0 00-3.369 2.194c-.014.158-.029.315-.043.5-.4-.129-.774-.244-1.19-.373a4.863 4.863 0 00.85-3.367zm-1.247-.373a3.717 3.717 0 01-.913 3.529.4.4 0 01-.287.115 4.281 4.281 0 00-2.853 1.161c-.158 0-.33 0-.487.014a.736.736 0 01-.53-.2 3.547 3.547 0 00-1.778-1.333 2.253 2.253 0 01.244-2.423 2.809 2.809 0 012.779-1.251 1.132 1.132 0 01.86 1.047 1.042 1.042 0 01-.731 1.1c-.029-.014-.086-.014-.1-.043-.287-.5-.631-.659-.961-.473-.3.186-.3.688-.014 1.118a1.215 1.215 0 001.72.229 2.094 2.094 0 00-.746-3.756 3.468 3.468 0 00-4.028 4.033 1.471 1.471 0 00.057.2c.014.029.014.057.029.086a.733.733 0 01-.516-.115.817.817 0 01-.287-.358c-.244-.516-.573-.989-.8-1.52a1.744 1.744 0 01-.143-1 .182.182 0 00.014-.086 4.552 4.552 0 01.573-1.348 4.641 4.641 0 015.273-1.881c.1.029.2.057.287.086a6.788 6.788 0 011.1.43 4.354 4.354 0 012.242 2.638zm-5.702-4.861a22.26 22.26 0 001.706-.1c.43-.043.674.129.674.545v.229a7.7 7.7 0 00-2.079-.2.736.736 0 01-.53-.2c-.072-.1-.143-.186-.215-.287.143.013.301.013.444.013zm-1.923-6.036c-.1.616-.2 1.147-.258 1.692a53.599 53.599 0 00-.272 3.068.244.244 0 01-.014.1 4.535 4.535 0 00-2.466.129 9.486 9.486 0 00-.358.129c-.1-1.735-.186-3.412-.272-5.118h3.64zm-6.163 6.681c.215-.057.43-.1.645-.143-.2.186-.4.387-.631.616a.354.354 0 01-.129-.057 3.149 3.149 0 00-.258-.2.769.769 0 01.373-.216zm-3.011.345a3.055 3.055 0 011.262.258 2.843 2.843 0 011.032.789c.1.115.186.229.272.344h-.072a6.424 6.424 0 00-1.29.029 4.921 4.921 0 00-3.039 1.58.454.454 0 01-.358.086c-.6-.2-1.2-.43-1.849-.659a4.842 4.842 0 014.042-2.427zm-8.645 5.734a4.572 4.572 0 014.688-2.222c.487.072.961.229 1.462.344-.2.516-.387.961-.573 1.419a2.491 2.491 0 00-2.28-.975 2.043 2.043 0 00-1.749 2.48 1.28 1.28 0 00.975.975 1.347 1.347 0 001.391-.5.41.41 0 00-.057-.688c-.258-.186-.545-.229-.731.086-.143.229-.3.5-.559.3a.955.955 0 01-.3-.76 1.614 1.614 0 012.165-.989 1.548 1.548 0 011.032 1.462c.014.373.072.746.115 1.161-1.964-.072-3.269 1.061-4.53 2.294-1.307-.688-1.837-2.882-1.049-4.387zm-6.337 7.484c.631-2.222 2.308-3.355 4.43-3.943.53-.143.86-.115 1.118.487a7.959 7.959 0 001.076 1.438c-.158.287-.344.631-.545 1-.143-.1-.272-.186-.4-.272a2.724 2.724 0 00-4.216 1.672 1.765 1.765 0 001.319 2.179 1.248 1.248 0 001.232-.479 1.222 1.222 0 00.2-1.262c-.143-.344-.373-.545-.746-.373a.552.552 0 00-.358.774 1.224 1.224 0 01-.057.545c-.215-.057-.545-.057-.6-.186a2.036 2.036 0 01-.215-1.1 1.813 1.813 0 011.418-1.398 1.994 1.994 0 011.978.545.464.464 0 01.143.358 5.359 5.359 0 00.129 2.609c.029.1.057.2.1.315-.057.029-.1.072-.158.1a5.914 5.914 0 01-2.409 1.133 3.1 3.1 0 01-3.439-4.142zm1.032 5.892a8.965 8.965 0 010-1.075 6.04 6.04 0 002.05.43c-.014.014-.029.014-.043.029a7.115 7.115 0 00-1.835 1.333 5.244 5.244 0 01-.172-.717zm-.158 3.312a4.893 4.893 0 01.344-.9 4.779 4.779 0 01.559-.9 6.541 6.541 0 013.528-2.142c.53-.143.86-.115 1.118.487a7.959 7.959 0 001.075 1.433c-.129.244-.272.516-.444.817-.029.057-.072.115-.1.186a2.908 2.908 0 00-.258-.186c-.043-.029-.086-.057-.143-.1a2.732 2.732 0 00-3.168.043 2.674 2.674 0 00-.832.989 2.976 2.976 0 00-.229.659 1.765 1.765 0 001.319 2.179 1.248 1.248 0 001.232-.487 1.222 1.222 0 00.2-1.262c-.143-.344-.373-.545-.746-.373a.552.552 0 00-.358.774 1.224 1.224 0 01-.057.545c-.215-.057-.545-.057-.6-.186a2.036 2.036 0 01-.215-1.1 1.889 1.889 0 01.258-.631 1.928 1.928 0 011.147-.774 1.994 1.994 0 011.978.545.458.458 0 01.129.229.488.488 0 01.014.143 5.311 5.311 0 00.231 2.908 6.306 6.306 0 01-2.552 1.233 3.078 3.078 0 01-3.429-4.129zm9.262 28.559l-3.455-.287a37.045 37.045 0 01.846-8.086c.43-2.652.774-5.3 1.176-8.057 1.061.1 2.108.2 3.14.33.1.014.229.315.215.473-.143 1.29-.3 2.566-.473 3.857-.33 2.509-.7 5-1.018 7.513-.187 1.361-.287 2.738-.431 4.257zm2.509-8.588c-.115 1.118.014 2.265-.129 3.369-.2 1.462-.559 2.91-.875 4.358-.086.416-.4.674-1 .717.143-1.276.287-2.509.444-3.742.143-1.2.3-2.409.459-3.627.258-1.907.53-3.814.774-5.72.115-.918.172-1.849.272-2.824h1.016c-.33 2.523-.688 4.989-.961 7.47zm13.19 3.207c-.029.086-.244.158-.373.158-.8 0-1.591-.057-2.394-.043-.373 0-.5-.129-.5-.5.014-.43-.029-.86-.057-1.3 1.176-.072 2.351-.143 3.584-.229a2.359 2.359 0 01-.26 1.914zm7.556-3.685a110.752 110.752 0 01-19.756.946c.186-.789.344-1.477.473-2.036.946-.057 1.864-.129 2.781-.172a30.097 30.097 0 011.993-.014c1.491.043 2.968.158 4.459.129a33.8 33.8 0 015.52.373 26.5 26.5 0 003.541.086c.387 0 .889-.043.9-.5.014-.487-.53-.5-.875-.5-1.147-.029-2.294.029-3.427-.029-.789-.043-1.577-.215-2.294-.315v-4.515c2.208.1 4.272.2 6.351.287.248 2.136.707 4.201.334 6.265zm-11.556-2.145h-7.656c.143-1.548.315-3.183.487-4.961 2.452.1 4.8.186 7.2.272-.088 1.649-.676 3.169-.031 4.689zm.66-4.66c1.133.072 2.251.158 3.369.229-.143 1.505-.272 2.91-.4 4.4h-2.539c-.832-1.403-.057-3.009-.43-4.629zm13.419 15.427c-.072-.545-.129-1.061-.215-1.548-.244-1.405-.53-2.8-.76-4.215a17.772 17.772 0 01-.344-3 21.984 21.984 0 00-.66-5.649c-.029-.115-.029-.215-.057-.387h1.047c.1.86.186 1.72.287 2.581.258 2.222.53 4.444.789 6.681a2.784 2.784 0 01.029.344l.215 4.674c.042.261.099.562-.331.519zm3.211-5.692c.158 1.591.215 3.183.315 4.789a.6.6 0 01-.631.717c-.66.029-1.333.014-1.993.014-.373-4.875-.76-9.749-1.133-14.667h2.28c.129.961.258 1.921.373 2.867.273 2.094.575 4.187.79 6.28zm6.18-11.455c-1.964.287-3.8.559-5.649.817a13.692 13.692 0 01-1.706.143c-3.943.014-7.9.043-11.842-.014s-7.842-.215-11.771-.33c-1.749-.057-3.513-.029-5.262-.158-2.552-.172-5.1-.459-7.67-.674-1.147-.1-1.176-.129-.889-1.247a9.1 9.1 0 00.258-1.52c.029-.416.186-.631.516-.717a1.547 1.547 0 01.272-.043c.272-.014.545-.043.832-.057.975-.086 1.95-.2 2.925-.229a9.256 9.256 0 012.753.2 16.613 16.613 0 004.014.416c3.613.129 7.24.072 10.853.287.358.014.717.043 1.075.043h.014c3.2.1 6.394-.129 9.606 0 1.706.072 3.427-.029 5.147-.115a.488.488 0 00.143-.014 6.328 6.328 0 001.448-.473 2.993 2.993 0 01.9-.229c.832.014 1.663.057 2.495.115.287.014.573.029.86.057.143.014.373.129.387.229s.043.186.057.287a9.644 9.644 0 01.234 3.226z" fill="#b9994d"/></g></svg>