<svg xmlns="http://www.w3.org/2000/svg" width="60" height="60" viewBox="0 0 60 60"><defs><clipPath id="a"><path data-name="Rectangle 7773" transform="translate(1412 136)" fill="#b9994d" stroke="#707070" opacity=".5" d="M0 0h60v60H0z"/></clipPath></defs><g data-name="Mask Group 432" transform="translate(-1412 -136)" clip-path="url(#a)"><path data-name="flower basket" d="M1446.878 192.9h-5.785l-.763-.088c-2.529-.281-5.075-.455-7.583-.866a10.141 10.141 0 01-8.643-7.822 20.811 20.811 0 01-.619-6.908c.04-.7.085-1.4.129-2.108a2.6 2.6 0 01-2.181-2 9.523 9.523 0 01-.1-1.995.922.922 0 00-.26-.773 3.548 3.548 0 01-1.075-2.499 5.312 5.312 0 013.207-5.105.806.806 0 00.528-.887 28.157 28.157 0 01.821-8.6c1.975-7.361 7.253-12 14.756-12.949.868-.11 1.74-.2 2.609-.3h3.513c.765.1 1.532.185 2.292.313a14.01 14.01 0 019.261 5.292 17.042 17.042 0 013.108 7.395c.27 1.485.419 2.991.625 4.517-.014-.007.014.019.044.023a3.984 3.984 0 013.026 5.678.573.573 0 00.077.645 4.334 4.334 0 01.625 3.835c-.174.6-.671 1.147-.7 1.736a9.487 9.487 0 00.5 1.872 3.072 3.072 0 01-2.592 3.744c-.182.037-.362.079-.635.138-.051 1.719-.106 3.436-.152 5.153a21.932 21.932 0 01-.709 5.874 8.16 8.16 0 01-5 5.718 15.408 15.408 0 01-4.667.762c-1.22.062-2.437.135-3.657.205zm8.83-36.98a5.982 5.982 0 012.9 1.659.694.694 0 00.572.077c.1-.029.211-.277.2-.422a25.346 25.346 0 00-1.258-7.034 12.574 12.574 0 00-9.755-8.77 27.8 27.8 0 00-9.6-.307 14.35 14.35 0 00-12.069 9.171 29.233 29.233 0 00-2.031 8.706c-.1 1.058-.156 2.121-.233 3.217l1.529-.163a4.762 4.762 0 012-4.956 2.232 2.232 0 001.024-1.537 14.167 14.167 0 018.658-10.393 12.8 12.8 0 0110.631-.118c4.629 2.064 7.048 5.75 7.432 10.87zm-10.152 28.88l-.1.118c.339.493.661 1 1.024 1.478.479.632.419.877-.337 1.145-.647.229-1.292.47-1.945.683a4.73 4.73 0 00-1.847.791 1.266 1.266 0 01-1.029.074 15.951 15.951 0 01-2.081-.882c-.793-.39-.784-.506-.315-1.236.455-.708.851-1.452 1.273-2.181l-.128-.088c-.877.468-1.748.95-2.634 1.4-1.256.638-2.15.273-2.532-1.077-.136-.484-.38-.57-.824-.607-2.5-.209-5-.453-7.5-.689-.485-.045-.967-.109-1.5-.171.955 3.294 2.792 5.692 6.034 6.855a22.464 22.464 0 005.3 1.063 78.283 78.283 0 0016.236-.143 6.637 6.637 0 005.867-4.241c.306-.742.488-1.536.719-2.309a.527.527 0 00.015-.209h-8.205l-.044.252c-.313 1.832-.889 2.131-2.57 1.336zm14.31-9.607h-35.441v4.635l9.747.576c0-.771-.026-1.44.006-2.1.051-1.054.692-1.426 1.6-.894.89.519 1.752 1.09 2.593 1.686.682.484 1.313 1.037 2.007 1.592a3.609 3.609 0 012.43-1.818 2.7 2.7 0 012.69 1.172c1.278-.917 2.506-1.829 3.768-2.694 1.052-.722 1.831-.353 1.971.917.08.729.094 1.466.145 2.329l8.2-.561c.095-1.668.187-3.221.284-4.841zm-7.344-18.474l1.933-.93c-.055-.544-.073-1.149-.18-1.737a11.149 11.149 0 00-12.036-9.042 12.828 12.828 0 00-9.125 4.651 20.151 20.151 0 00-3.644 6.664 3.234 3.234 0 01.657-.094c.579.047.833-.225 1.087-.745a4.532 4.532 0 017.078-1.6.437.437 0 00.131.054 6.885 6.885 0 013.032-2.081 3.9 3.9 0 014.491 1.282.677.677 0 00.514.191 6.715 6.715 0 013.626.825 5.561 5.561 0 012.436 2.562zm-30.416 14.424a7.894 7.894 0 00.007 1.04 2.007 2.007 0 001.894 1.917 8.083 8.083 0 001.182.087c2.462.01 4.923.025 7.385.008q13.84-.093 27.68-.209a6.069 6.069 0 001.127-.113 1.776 1.776 0 001.507-1.244 3.623 3.623 0 00-.163-2.167c-2.528 1.846-6.017 1.387-7.352-.6a4.463 4.463 0 01-2.707 1.269 24.4 24.4 0 01-3.188-.031 3.512 3.512 0 01-3.332-1.927 4.175 4.175 0 01-2.728 1.606 9.709 9.709 0 01-6.934-1.627c-.81 2.9-6.271 4.662-9.01 1.214a5.282 5.282 0 01-5.368.777zm25.1-4.522c-.081.3-.136.537-.207.765s-.142.46-.234.682c-.313.749-.231 1.083.482 1.517a3.234 3.234 0 001.131.471 12.826 12.826 0 004.465-.073 3.178 3.178 0 002.222-1.7 3.674 3.674 0 00-.072-3.834 4.834 4.834 0 00-5.578-2.026 2.58 2.58 0 00-1.737 2.65 2.422 2.422 0 001.873 2.258 2.3 2.3 0 002.606-.853 1.624 1.624 0 00.07-1.057c-.087-.357-.457-.337-.785-.291a.509.509 0 01-.621-.471.56.56 0 01.439-.707 1.342 1.342 0 01.508-.021 1.888 1.888 0 011.552 2.054 2.664 2.664 0 01-2.222 2.215 3.722 3.722 0 01-3.895-1.579zm-10.73-1.7a4.755 4.755 0 01-3.635-2.8c-.051-.109-.343-.174-.507-.149a6.385 6.385 0 00-4.736 5.478 3.44 3.44 0 001.78 3.171 4.82 4.82 0 005.765-1.178 2.09 2.09 0 00.1-2.59 3.646 3.646 0 00-2.818-1.693 2.025 2.025 0 00-1.758.7 1.205 1.205 0 00-.183 1.393.83.83 0 00.861.533.721.721 0 00.661-.676.652.652 0 111.24.391 1.976 1.976 0 01-1.781 1.274 1.829 1.829 0 01-1.726-1.244 2.467 2.467 0 012.008-3.144 4.052 4.052 0 013.54 1.163c.247.22.46.479.7.733.164-.46.311-.883.487-1.361zm10.522-1.621a3.817 3.817 0 013.514-2.262.4.4 0 00.27-.114 3.557 3.557 0 00.877-3.391 4.505 4.505 0 00-3.5-3.02 4.378 4.378 0 00-5.649 3.187 1.655 1.655 0 00.141.957c.215.5.54.959.771 1.456a.7.7 0 00.774.452c-.03-.112-.056-.191-.074-.273a3.34 3.34 0 013.876-3.868 2.016 2.016 0 01.714 3.61 1.174 1.174 0 01-1.654-.225c-.278-.4-.27-.894.017-1.069.315-.191.649-.029.926.449.014.023.059.028.091.04a1.007 1.007 0 00.705-1.063 1.078 1.078 0 00-.822-1 2.682 2.682 0 00-2.671 1.2 2.146 2.146 0 00-.039 2.634c.564.788 1.163 1.553 1.733 2.3zm-8.429-.062a9.567 9.567 0 00-1.386 3.588 1.589 1.589 0 001.1 1.934 17.786 17.786 0 003.411.953 3.191 3.191 0 003.692-1.98 5.616 5.616 0 00.353-3.533 3.316 3.316 0 00-3.967-2.715 3.356 3.356 0 00-2.533 3.871 2.16 2.16 0 002 1.9 2.25 2.25 0 002.1-1.992c.085-.749-.331-1.391-.953-1.4a.808.808 0 00-.6.271.673.673 0 00.091.591.545.545 0 01-.1.851c-.336.259-.621.116-.833-.189a1.522 1.522 0 01-.136-1.613 1.432 1.432 0 011.32-.843 2.16 2.16 0 012.039 2.515 3.074 3.074 0 01-2.6 2.632 2.766 2.766 0 01-2.849-1.864 4.519 4.519 0 01-.153-2.973zm18.029 2.026c.034.3.08.588.1.875a1.891 1.891 0 001.464 1.811 1.975 1.975 0 002.34-1.284 1.71 1.71 0 00-.08-.581 1.744 1.744 0 01-.457.076c-.245-.026-.559-.032-.7-.182-.1-.1-.015-.493.114-.653a1.2 1.2 0 011.379-.236 1.384 1.384 0 01.74 1.41 2.713 2.713 0 01-2.43 2.234 2.9 2.9 0 01-2.484-1.083c-.084.244-.139.419-.207.591s-.142.351-.226.519c-.337.679-.321.78.3 1.24a3.5 3.5 0 00.663.393 4.652 4.652 0 006.215-3.138 3.228 3.228 0 00-2.153-3.937c-.369-.121-.76-.18-1.134-.267a4.772 4.772 0 01-3.444 2.212zm-14-4.958a9.129 9.129 0 00-3.044-3.35 4.614 4.614 0 00-.791-.375 3.838 3.838 0 00-5.2 4.188 4.052 4.052 0 002.937 3.1.491.491 0 00.731-.264 5.873 5.873 0 012.285-2.464c.366-.2.435-.412.24-.726a8.677 8.677 0 00-.922-1.343 1.716 1.716 0 00-1.525-.467 1.358 1.358 0 00-1.158 1.84c.153.293.358.574.782.287-.062-.079-.117-.138-.161-.207a.5.5 0 01.164-.792.8.8 0 01.7.165 1.034 1.034 0 01-.4 1.689 1.426 1.426 0 01-1.791-.8 2.23 2.23 0 011.587-3.119 2.819 2.819 0 013.226 1.956c.117.335.182.689.28 1.069.691-.131 1.374-.259 2.06-.387zm-15.7 8.98a5.168 5.168 0 01-.219-2.8.452.452 0 00-.136-.35 1.93 1.93 0 00-1.9-.517 1.755 1.755 0 00-1.36 1.342 1.923 1.923 0 00.2 1.055c.051.12.377.124.579.18.022-.176.109-.375.055-.523a.526.526 0 01.343-.741c.369-.161.59.033.722.364a1.167 1.167 0 01-.2 1.212 1.179 1.179 0 01-1.183.471 1.694 1.694 0 01-1.27-2.092 2.614 2.614 0 014.049-1.616l.383.264.521-.963a7.557 7.557 0 01-1.036-1.38c-.253-.569-.563-.6-1.073-.463a5.5 5.5 0 00-4.259 3.79 2.954 2.954 0 003.324 3.952 6.144 6.144 0 002.46-1.185zm26.243-7.8c.017-.183.029-.333.045-.484a2.4 2.4 0 013.238-2.102 1.921 1.921 0 01.989 2.543 1.009 1.009 0 01-1.792.174c-.092-.161-.121-.528-.036-.585a1.435 1.435 0 01.692-.128c.129-.007.353.11.376.072a.782.782 0 00.129-.464 1.206 1.206 0 00-1.515-.949 2.073 2.073 0 00-1.469 2.06.426.426 0 00.15.292 6.315 6.315 0 012.25 2.356c.5-.183.959-.322 1.4-.519a2.653 2.653 0 001.66-3.346 5.926 5.926 0 00-3.093-3.317 2.747 2.747 0 00-3.017.309.729.729 0 00-.291.5 4.47 4.47 0 01-.859 3.228c.4.128.758.239 1.142.361zm-17.948 16.7a17.689 17.689 0 00.62 6.666c.165.537.49.712.876.5 1.175-.636 2.332-1.307 3.353-1.883 0-.773.011-1.411-.008-2.047a.564.564 0 00-.179-.408c-1.522-.939-3.057-1.859-4.662-2.832zm10.08 5.404l4 1.664c.276.114.417.014.478-.266a28.966 28.966 0 00.565-6.5c-.006-.448-.176-.533-.546-.3-1.311.811-2.617 1.63-3.965 2.471a3.042 3.042 0 01-.532 2.931zm-20.784-3.109c.109.671.24 1.361.326 2.057.051.409.238.514.638.529 2.167.083 4.334.193 6.5.31.851.045 1.7.134 2.576.2l-.307-2.306zm26.641 3.488a.591.591 0 00.161.047q3.938-.269 7.877-.55c.1-.008.28-.131.288-.214.073-.778.116-1.559.16-2.234h-8.247l-.238 2.951zm-18.558-22.6c-.04-.4-.09-.756-.109-1.116a1.511 1.511 0 00-1-1.409 1.544 1.544 0 00-2.075.946.933.933 0 00.3.729c.241.2.4-.062.53-.288.18-.307.459-.269.709-.09a.4.4 0 01.05.664 1.326 1.326 0 01-1.34.475 1.236 1.236 0 01-.939-.933 1.974 1.974 0 011.687-2.384 2.368 2.368 0 012.192.931l.55-1.369c-.484-.117-.941-.259-1.409-.335a4.4 4.4 0 00-4.52 2.134 3.359 3.359 0 001.025 4.25c1.209-1.184 2.469-2.268 4.35-2.202zm12.339-7.727a2.2 2.2 0 00-1.613-.942c-1.825-.225-3.108.8-4.381 1.872a3.309 3.309 0 00.563 1.011c.734.6 1.539 1.109 2.307 1.649a4.836 4.836 0 013.124-3.586zm.006 28.062a1.828 1.828 0 00-1.413-1.937 2.316 2.316 0 00-2.706 2.533 1.76 1.76 0 00.607 1.015 2.168 2.168 0 002.389.069 1.949 1.949 0 001.123-1.677zm-5.259 5.748l1.763.709a.55.55 0 00.758-.241c.546-1.057 1.063-2.128 1.659-3.331a3.543 3.543 0 01-2.84-.329l-1.341 3.196zm-1.67-32.288a2.9 2.9 0 00-2.471-1.346 4.6 4.6 0 00-3.868 2.324c.613.225 1.187.444 1.771.638a.4.4 0 00.344-.077 4.886 4.886 0 014.224-1.539zm22.492 6.742c.45.1.843.163 1.211.289a10.926 10.926 0 011.066.49 2.933 2.933 0 00-.315-3.19 3.062 3.062 0 00-3.065-1.028 4.556 4.556 0 011.103 3.438zm-15.729 22.955l-1.047 2.508c.7-.251 1.316-.471 1.964-.7l-.917-1.808z" fill="#b9994d"/></g></svg>