<svg xmlns="http://www.w3.org/2000/svg" width="60" height="60" viewBox="0 0 60 60"><defs><clipPath id="a"><path data-name="Rectangle 7772" transform="translate(1627 132)" fill="#fff" stroke="#707070" opacity=".5" d="M0 0h60v60H0z"/></clipPath></defs><g data-name="Mask Group 431" transform="translate(-1627 -132)" clip-path="url(#a)"><g data-name="flower box" fill="#b9994d"><g data-name="Group 16467"><path data-name="Path 13310" d="M1652.431 156.51l1.794-.935.633-.33.127-1.357-.046.023-.17.094a6.003 6.003 0 00-.236.145v-.013l-.861.478-.687.387z"/><path data-name="Path 13311" d="M1674.96 164.485a.713.713 0 01.242-.616 1.658 1.658 0 00.534-1.484c-.06-.465-.155-.926-.225-1.39-.134-.889-.226-1.787-.4-2.668s-.549-1.147-1.439-1.293c-1.943-.318-3.907-.559-5.821-1.007-.319-.075-.637-.152-.955-.23l-.516 1.068 2.064.531 4.429.852c-.476.393-.911.762-1.357 1.117q-4.38 3.488-8.766 6.97a2.634 2.634 0 01-1.622.7 4 4 0 01-.965-.115q-2.534-.632-5.064-1.28l-10.158-2.11q-2.026-.271-4.05-.547c-.007 0-.012-.019-.038-.062l3.811-2.362.3-.186.021.019.165-.085.465-.242.533-.278 1.036-.54-.867-.494-.612.345c0-.018-.01-.034-.013-.053l-1.1.613.009.063c-.105.051-.222.107-.337.166-1.265.649-2.541 1.277-3.791 1.952a2.382 2.382 0 00-1.369 2.791c.1.683.206 1.369.365 2.041a2.713 2.713 0 001.1 1.991c.084.049.12.22.138.34.305 2.039.593 4.08.907 6.118q.752 4.894 1.533 9.782a2.383 2.383 0 00.662 1.631 5.658 5.658 0 001.392.744c.53.215 1.091.351 1.641.517a7.307 7.307 0 001.651.459c.646.033.9.618 1.449.776.913.265 1.8.625 2.7.919a1.522 1.522 0 001.325-.1.524.524 0 01.365.013c.874.263 1.74.552 2.618.8 1.587.455 3.18.89 4.771 1.334h.863a9.163 9.163 0 001.4-.652 70.06 70.06 0 0010.694-8.732 2.735 2.735 0 00.839-2c-.03-2.455-.038-4.911-.126-7.364-.103-2.918-.277-5.839-.431-8.762zm-21.8 1.563c2.338.586 4.675 1.176 7.014 1.755.338.083.688.114 1.093.179v4.352c-1.02-.27-2.064-.537-3.1-.825-1.732-.479-3.461-.974-5.193-1.454a.385.385 0 01-.344-.388c-.079-.87-.185-1.737-.28-2.605a3.514 3.514 0 01-.026-.312c-.021-.779.103-.884.836-.701zm-12.4.637c-.163-.8-.336-1.606-.49-2.412a3.361 3.361 0 010-.585c.831.094 1.621.163 2.4.277 1.25.184 2.5.4 3.745.6.179.028.316.049.329.289.07 1.276.155 2.551.234 3.826a2.188 2.188 0 01-.019.24c-.85-.171-1.677-.333-2.5-.5s-1.652-.374-2.484-.525a1.384 1.384 0 01-1.22-1.21zm4.362 19.374a1.184 1.184 0 01-.71-1.047c-.343-1.886-.674-3.773-1.033-5.656-.631-3.317-1.279-6.629-1.919-9.944-.027-.137-.047-.276-.075-.438l5.66 1.141 1.451 17.028c-1.15-.367-2.268-.708-3.374-1.084zm7.8 2.846a91.001 91.001 0 01-2.431-.859 1.421 1.421 0 01-.932-1.324c-.3-3.079-.616-6.155-.9-9.235-.216-2.34-.4-4.682-.578-7.025-.129-1.731-.217-3.465-.321-5.2-.008-.129 0-.258 0-.441l3.668.8a8.2 8.2 0 00.058 3.43c.23 2.482.5 4.961.748 7.44.248 2.441.513 4.88.743 7.323.148 1.572.25 3.149.363 4.724.031.393-.074.481-.418.367zm9.1 1.931l-7.613-1.734c-.292-6.046-1.1-12.059-1.627-18.132 2.893.987 5.748 2 8.751 2.793.31 5.598.571 11.287.489 17.072zm11.83-9.165a65.2 65.2 0 01-10.54 8.667c-.064.041-.133.073-.2.11 0-.777-.007-1.52 0-2.263a94.379 94.379 0 00-.462-10.8 83.166 83.166 0 00-.428-3.338c-.044-.3.021-.4.306-.538a26.049 26.049 0 002.929-1.55 56.668 56.668 0 005.787-4.732l2.526-2.157c.03.407.069.749.079 1.091q.212 7.244.42 14.488a1.328 1.328 0 01-.413 1.022zm.268-18.493c-.985.835-1.968 1.673-2.967 2.491-1.927 1.58-3.839 3.18-5.808 4.707-.911.707-1.939 1.263-2.992 1.939-.054-.6-.1-1.086-.142-1.571-.085-.87-.181-1.739-.254-2.61a.448.448 0 01.126-.351c.9-.626 1.847-1.179 2.7-1.857 2.908-2.318 5.782-4.68 8.669-7.025.089-.073.18-.141.312-.245.244 1.182.478 2.3.71 3.428a1.063 1.063 0 01-.352 1.093z"/></g><path data-name="Path 13312" d="M1674.056 139.032c-.108-.393-.37-.492-.769-.391a5.088 5.088 0 00-.627.216c-.372.146-.741.3-1.121.458-.11-.538-.18-1.04-.319-1.523-.233-.81-.571-.972-1.336-.649-.569.24-1.119.529-1.689.8a4.941 4.941 0 00-.236-.473 18.569 18.569 0 00-1.053-1.582c-.284-.357-.55-.343-.929-.075-.262.186-.508.393-.76.588-.206-.2-.377-.4-.577-.566a.755.755 0 00-1.194.1 7.876 7.876 0 00-.741.91c-.522.808-1.012 1.635-1.5 2.424-.181-.443-.366-.958-.6-1.452a22.174 22.174 0 00-3.2-4.62 7.093 7.093 0 00-.939-.933c-.542-.446-.921-.324-1.139.341-.146.446-.269.9-.4 1.349l-.215.7c-.366-.383-.658-.737-1-1.033a13.764 13.764 0 00-1.518-1.171c-.487-.313-.823-.182-1.086.329-.149.29-.288.585-.419.883-.161.364-.31.734-.445 1.056-.728-.293-1.4-.612-2.105-.835-.628-.2-.818-.043-.947.6-.106.535-.206 1.067-.312 1.597-.448-.07-.843-.158-1.244-.182-.561-.035-.788.33-.628.866.3 1 .587 2 .833 3.011.184.753.293 1.524.432 2.264-.61-.156-1.156-.329-1.714-.429-.51-.092-.793.17-.834.68-.025.312-.032.627-.082.936-.115.7-.25 1.4-.36 2.008-.9-.046-1.729-.131-2.557-.118-.669.01-.88.379-.713 1.026.14.539.263 1.083.405 1.67-.189.009-.317.017-.444.021-.862.027-1.058.257-.945 1.116a1.827 1.827 0 00.05.229 27.747 27.747 0 002.146 5.74 8.181 8.181 0 001.906 2.414 9.11 9.11 0 006.379 2.357.4.4 0 01.325.174c.153.44.293.885.437 1.355l.063.022.073.418.073.235-.034-.015.372 2.132c.011-.014.022-.027.033-.044l.028.4.047.684.679.145a18.778 18.778 0 00-1.272-5.656l.692-.357c.368 1.23.723 2.423 1.084 3.615a14.217 14.217 0 01.5 2.613l.654.139c-.01-.082-.019-.165-.03-.246a23.323 23.323 0 00-1.734-5.993.523.523 0 01.1-.651 5.462 5.462 0 00.807-1.146c.477-.979.9-1.985 1.338-2.98l1.047-.49c0 1.269-.026 2.508 0 3.746.062 2.467.131 4.934.248 7.4a6.448 6.448 0 00.085.76l.766.163a26.928 26.928 0 01-.308-2.827c-.1-2.491-.111-4.986-.17-7.479a18.124 18.124 0 00-.12-1.758.7.7 0 01.3-.733c.216-.156.405-.35.668-.583v.375c.028 1.577.038 3.155.092 4.731.045 1.33.129 2.66.216 3.988.078 1.185.2 2.367.27 3.552a7.285 7.285 0 010 .937l.529.113c.027-.405.049-.812.047-1.218q-.009-1.743-.062-3.485c-.037-1.3-.089-2.609-.145-3.913-.021-.481-.072-.96-.109-1.44l.118-.058a6.039 6.039 0 003.992 3.925c-.1 1.105-.2 2.17-.285 3.236-.1 1.2-.186 2.395-.278 3.592v.06l1.234.263.916-.682c.091-.73.167-1.464.2-2.2.059-1.317.059-2.637.1-3.956a.462.462 0 01.16-.342 8.473 8.473 0 01.841-.4v.57c0 1.782 0 3.565.016 5.347l.651-.485c-.034-.65-.063-1.3-.1-1.949-.053-1.056-.1-2.112-.163-3.167-.024-.364 0-.663.389-.83a2.44 2.44 0 00.434-.328c.03.565.052 1.069.084 1.571.084 1.344.174 2.686.257 4.03l.609-.453c-.073-1.9-.131-3.8-.189-5.693a.56.56 0 01.08-.327 12.785 12.785 0 001.847-4.036c.316-1.016.529-2.064.773-3.039a5.636 5.636 0 00.811-.361 8.307 8.307 0 002.576-2.8 15.13 15.13 0 002.092-7.413 4.9 4.9 0 00-.208-1.415zm-5.344-.217c.532-.3 1.073-.584 1.651-.9a3.7 3.7 0 01.133 1.795.277.277 0 01-.111.183c-.442.269-.889.527-1.357.8-.152-.564-.3-1.1-.434-1.639a.285.285 0 01.118-.239zm-2.809-1.777c.168-.122.319-.267.506-.427a5.133 5.133 0 01.913 1.625 10.621 10.621 0 01.664 3.086.323.323 0 01-.07.236c-.217.2-.45.384-.727.615a14.5 14.5 0 00-1.368-4.707c-.093-.187-.091-.303.082-.428zm-2.445.436c.188-.245.419-.459.629-.686 1.463 1.269 2.84 6.045 1.933 9.431-.187-.359-.333-.689-.523-.989a9.9 9.9 0 00-.891-1.274c-.307-.349-.525-.347-.88-.042-.532.456-1.032.951-1.564 1.447-.272-.322-.567-.652-.837-1a.665.665 0 01-.112-.391 10.635 10.635 0 012.245-6.496zm1.272 10.284l-.727.683-1.375-2.489 1.64-1.563c.306.61.611 1.132.838 1.686.398.968.38.976-.376 1.683zm-12.817-14.485a8.584 8.584 0 012.439 2.28.389.389 0 01.019.29c-.18.595-.371 1.187-.552 1.757l-2.707-2.407.801-1.92zm-3.95 1.386c.358.167.684.312 1.005.469a12.161 12.161 0 013.889 2.974 4.7 4.7 0 01.469.671.5.5 0 01.035.322c-.044.242-.114.481-.2.823a12.68 12.68 0 00-5.475-3.526zm-3.656 10.7c.128-.914.273-1.826.423-2.8a4.763 4.763 0 012.428 1.387l-1.137 2.478c-.538-.256-1.069-.5-1.587-.766a.357.357 0 01-.127-.295zm.16 1.329a7.457 7.457 0 011.068.557.366.366 0 01.133.306c-.067.368-.171.729-.264 1.1a13.193 13.193 0 00-1.668-.558 21.381 21.381 0 00-2.245-.265c-.216-.02-.324-.072-.358-.3-.071-.473-.176-.941-.278-1.475a8.294 8.294 0 013.612.639zm5.93 11.928a3.516 3.516 0 01-2.482.219 8.318 8.318 0 01-6.329-4.871 22.618 22.618 0 01-1.578-4.692c-.023-.1-.033-.2-.056-.348 2.851-.157 5.423.3 7.554 2.362a11.062 11.062 0 013.116 6.9.376.376 0 01-.225.434zm2.64-4.9a8.419 8.419 0 01-1.644 4.048c-.019.028-.059.042-.133.094-.435-3.662-1.881-6.72-5.082-8.788a16.964 16.964 0 012.98-6.394 7.11 7.11 0 01.678.675 14.889 14.889 0 013.201 10.369zm.723-.386a20.631 20.631 0 00-.011-2.109 15.4 15.4 0 00-3.377-8.6 1.763 1.763 0 00-.34-.323c-1.068-.735-1.3-.554-1.855.25-.125.181-.258.355-.378.52a1.1 1.1 0 01-.723-1.044c-.242-1.622-.58-3.232-.88-4.846-.01-.062-.023-.124-.05-.268.34.091.638.155.927.251a11.726 11.726 0 015.613 3.612 16.5 16.5 0 012.2 3.687 17.717 17.717 0 011.417 4.7 3.857 3.857 0 01-2.543 4.174zm3.4-8.394c-.2.394-.319.824-.483 1.259-.162-.4-.322-.809-.487-1.21a22.045 22.045 0 00-2.195-4.1.765.765 0 01-.051-.573 498.937 498.937 0 011.582-5.362c.183-.612.384-1.217.576-1.826l.122-.053c.487.624 1.015 1.222 1.454 1.879a17.683 17.683 0 012.458 4.388 5.321 5.321 0 01.283 2.876 3.374 3.374 0 00-.069.464 1.929 1.929 0 01-.559 1.535 3.246 3.246 0 00-.523.752c-.239-.158-.456-.32-.692-.451a.939.939 0 00-1.414.426zm5.2 16.257q-.107 2.638-.223 5.275a2 2 0 01-.094.653.447.447 0 01-.368.215.421.421 0 01-.275-.31c.069-2.15.159-4.3.246-6.447 0-.062.018-.123.032-.216l.683.075c.005.272.012.514.003.759zm.192-5.036c-.044.894-.2 1.782-.305 2.673-.04.326-.186.428-.535.312a6.28 6.28 0 01-3.468-2.715 5.337 5.337 0 01-.774-2.68 99.76 99.76 0 010-5.789 17.183 17.183 0 01.464-2.528 6.084 6.084 0 012.169 2 14.112 14.112 0 012.453 8.731zm-2.655-10.547l.465-.727a7.407 7.407 0 012.793 4.127c.158.542-.322.8-.564 1.25a13.819 13.819 0 00-2.694-4.65zm5.543 11.579a5.639 5.639 0 01-2.265 1.951c.081-1.174.187-2.325.236-3.479a12.549 12.549 0 00-.438-4.027.559.559 0 01.029-.4 14.305 14.305 0 014.694-4.679.681.681 0 01.121-.026c.052.527.14 1.046.149 1.567a16.179 16.179 0 01-2.526 9.096zm3.482-7.552a831.79 831.79 0 00-.269-3.243 1.471 1.471 0 00-.084-.34c-.212-.621-.521-.734-1.1-.405-.088.05-.18.093-.29.151.045-.742.085-1.453.134-2.163a.3.3 0 01.1-.154 16.309 16.309 0 015.7-3.7.458.458 0 01.111-.013c.602 2.929-2.198 9.212-4.303 9.87z"/></g></g></svg>