<?xml version="1.0" encoding="utf-8"?>
<!-- Generator: Adobe Illustrator 22.0.0, SVG Export Plug-In . SVG Version: 6.00 Build 0)  -->
<svg version="1.1" id="Capa_1" xmlns="http://www.w3.org/2000/svg" xmlns:xlink="http://www.w3.org/1999/xlink" x="0px" y="0px"
	 viewBox="0 0 469.3 443.1" style="enable-background:new 0 0 469.3 443.1;" xml:space="preserve">
<g>
	<path d="M156,324.5L156,324.5c-32.7,0-59.3,26.6-59.3,59.3c0,32.7,26.6,59.3,59.3,59.3c32.7,0,59.3-26.6,59.3-59.3
		C215.3,351.1,188.7,324.5,156,324.5z M186.2,383.8c0,16.6-13.5,30.2-30.2,30.2c-16.6,0-30.2-13.5-30.2-30.2
		c0-16.6,13.5-30.2,30.2-30.2C172.7,353.6,186.2,367.1,186.2,383.8z"/>
	<path d="M466.6,100.3l-0.1-0.1c-2.7-3.6-7.1-5.8-11.6-5.8H102.8l-6.6-36.9c-4.8-26.7-26-47.9-52.7-52.6L17.1,0.2
		C9.2-1.2,1.6,4.1,0.2,12C-1.2,19.9,4.1,27.5,12,28.9l26.4,4.6c14.7,2.6,26.4,14.3,29,29l35.7,201.2c4.6,26.3,27.3,45.3,54,45.3
		c0,0,0,0,0.1,0h211.6c0.1,0,0.1,0,0.2,0c24,0,45.5-16,52.4-39l47.4-157.1C470,108.7,469.2,104.1,466.6,100.3z M369,279.9
		c0,0-0.1,0-0.1,0H157.2c0,0,0,0-0.1,0c-12.5,0-23.1-8.9-25.2-21.3l-24-135.2h327.3l-41.8,138.2l0,0
		C390.3,272.4,380.2,279.9,369,279.9z"/>
	<path d="M367.7,324.5L367.7,324.5c-32.7,0-59.3,26.6-59.3,59.3c0,32.7,26.6,59.3,59.3,59.3c32.7,0,59.3-26.6,59.3-59.3
		C426.9,351.1,400.3,324.5,367.7,324.5z M397.8,383.8c0,16.6-13.5,30.2-30.2,30.2c-16.6,0-30.2-13.5-30.2-30.2
		c0-16.6,13.5-30.2,30.2-30.2C384.3,353.6,397.8,367.1,397.8,383.8z"/>
</g>
</svg>
