<?xml version="1.0" encoding="utf-8"?>
<!-- Generator: Adobe Illustrator 22.0.0, SVG Export Plug-In . SVG Version: 6.00 Build 0)  -->
<svg version="1.1" id="Capa_1" xmlns="http://www.w3.org/2000/svg" xmlns:xlink="http://www.w3.org/1999/xlink" x="0px" y="0px"
	 viewBox="0 0 455.1 455.1" style="enable-background:new 0 0 455.1 455.1;" xml:space="preserve">
<path d="M441.9,441.9c-17.5,17.5-47.1,17.5-64.6,0L227.7,292.3L77.8,441.9c-17.5,17.5-47.1,17.5-64.6,0s-17.5-47.1,0-64.6
	l149.7-149.7L13.2,77.8c-17.5-17.5-17.5-47.1,0-64.6s47.1-17.5,64.6,0l149.7,149.7L377.1,13.2c17.5-17.5,47.1-17.5,64.6,0
	c17.5,17.5,17.5,47.1,0,64.6L292.1,227.4l149.7,149.7C459.5,394.9,459.5,424.2,441.9,441.9z"/>
</svg>
