<svg id="Mail_icon" data-name="Mail icon" xmlns="http://www.w3.org/2000/svg" width="32" height="32" viewBox="0 0 32 32">
  <defs>
    <style>
      .cls-1 {
        fill: #bdd1df;
      }

      .cls-2 {
        fill: #fff;
        fill-rule: evenodd;
      }
    </style>
  </defs>
  <circle id="Base" class="cls-1" cx="16" cy="16" r="16"/>
  <path id="Mail" class="cls-2" d="M1176.61,2110.18c0.49,0.27,6.24,4.01,6.49,4.15a1.866,1.866,0,0,0,.9.2,1.906,1.906,0,0,0,.91-0.2c0.25-.14,6-3.88,6.49-4.15s0.95-1.12.05-1.12h-14.89C1175.66,2109.06,1176.12,2109.91,1176.61,2110.18Zm14.99,2.06c-0.55.3-6.35,3.97-6.69,4.15a1.7,1.7,0,0,1-.91.2,1.663,1.663,0,0,1-.9-0.2c-0.34-.18-6.14-3.85-6.7-4.15-0.39-.21-0.38.03-0.38,0.22v7.56a1.177,1.177,0,0,0,.99.99H1191a1.188,1.188,0,0,0,.99-0.99v-7.56C1191.99,2112.27,1191.99,2112.03,1191.6,2112.24Z" transform="translate(-1168 -2098)"/>
</svg>
