<?xml version="1.0" encoding="utf-8"?>
<!-- Generator: Adobe Illustrator 22.0.0, SVG Export Plug-In . SVG Version: 6.00 Build 0)  -->
<svg version="1.0" id="Capa_1" xmlns="http://www.w3.org/2000/svg" xmlns:xlink="http://www.w3.org/1999/xlink" x="0px" y="0px"
	 viewBox="0 0 402 402" style="enable-background:new 0 0 402 402;" xml:space="preserve">
<style type="text/css">
	.st0{fill:#FFFFFF;}
</style>
<path class="st0" d="M280.8,0.2H121.9C97.7,0.2,78.1,19.8,78.1,44v314.1c0,24.2,19.6,43.8,43.8,43.8h158.9
	c24.2,0,43.8-19.6,43.8-43.8V44C324.7,19.8,305,0.2,280.8,0.2z M201.4,387.3c-13.7,0-24.8-11.1-24.8-24.8
	c0-13.7,11.1-24.8,24.8-24.8c13.7,0,24.8,11.1,24.8,24.8C226.1,376.2,215,387.3,201.4,387.3z M284.5,303.6c0,7.4-6.3,13.4-14,13.4
	H132.3c-7.7,0-14-6-14-13.4V42.5c0-7.4,6.3-13.4,14-13.4h138.1c7.7,0,14,6,14,13.4L284.5,303.6L284.5,303.6z"/>
</svg>
