<?xml version="1.0" encoding="utf-8"?>
<!-- Generator: Adobe Illustrator 22.0.0, SVG Export Plug-In . SVG Version: 6.00 Build 0)  -->
<svg version="1.1" id="Capa_1" xmlns="http://www.w3.org/2000/svg" xmlns:xlink="http://www.w3.org/1999/xlink" x="0px" y="0px"
	 viewBox="0 0 402 402" style="enable-background:new 0 0 402 402;" xml:space="preserve">
<g>
	<path d="M0,317.5c0,5.1,0.9,11.8,2.9,20.1c1.9,8.3,3.9,14.8,6,19.6c4,9.5,15.6,19.6,34.8,30.3c17.9,9.7,35.6,14.6,53.1,14.6
		c5.1,0,10.1-0.3,15-1c4.9-0.7,10.3-1.9,16.4-3.6c6.1-1.7,10.6-3.1,13.6-4.1c2.9-1,8.2-3,15.8-5.9c7.6-2.9,12.3-4.6,14-5.1
		c18.7-6.7,35.3-14.6,50-23.7c24.4-15,49.5-35.5,75.5-61.5c26-26,46.5-51.2,61.5-75.5c9.1-14.7,17-31.3,23.7-50
		c0.6-1.7,2.3-6.4,5.1-14c2.9-7.6,4.8-12.9,5.9-15.8c1-2.9,2.4-7.5,4.1-13.6c1.7-6.1,2.9-11.6,3.6-16.4c0.7-4.9,1-9.9,1-15
		c0-17.5-4.9-35.2-14.6-53.1c-10.7-19.2-20.7-30.8-30.3-34.8c-4.8-2.1-11.3-4.1-19.6-6c-8.3-1.9-15-2.9-20.1-2.9
		c-2.7,0-4.7,0.3-6,0.9c-3.4,1.1-8.5,8.4-15.1,21.7c-2.1,3.6-4.9,8.8-8.6,15.4c-3.6,6.7-6.9,12.7-10,18.1c-3,5.4-6,10.5-8.8,15.3
		c-0.6,0.8-2.2,3.1-5,7.1c-2.8,4-4.8,7.4-6.1,10.1c-1.3,2.8-2,5.5-2,8.1c0,3.8,2.7,8.6,8.1,14.3c5.4,5.7,11.3,10.9,17.7,15.7
		c6.4,4.8,12.3,9.8,17.7,15.1c5.4,5.3,8.1,9.7,8.1,13.1c0,1.7-0.5,3.9-1.4,6.4s-1.8,4.5-2.4,5.9c-0.7,1.3-2,3.6-4,6.9
		c-2,3.2-3.1,5-3.3,5.4c-14.5,26.1-31,48.4-49.7,67.1c-18.7,18.6-41,35.2-67.1,49.7c-0.4,0.2-2.2,1.3-5.4,3.3c-3.2,2-5.5,3.3-6.8,4
		c-1.3,0.7-3.3,1.5-5.9,2.4c-2.6,0.9-4.7,1.4-6.4,1.4c-3.4,0-7.8-2.7-13.1-8.1c-5.3-5.4-10.4-11.3-15.1-17.7
		c-4.8-6.4-10-12.3-15.7-17.7c-5.7-5.4-10.5-8.1-14.3-8.1c-2.7,0-5.4,0.7-8.1,2c-2.8,1.3-6.1,3.4-10.1,6.1c-4,2.8-6.4,4.4-7.1,5
		c-4.8,2.9-9.8,5.8-15.3,8.8c-5.4,3-11.5,6.4-18.1,10c-6.7,3.6-11.8,6.5-15.4,8.6C9.2,303,2,308,0.9,311.5
		C0.3,312.8,0,314.8,0,317.5z"/>
</g>
</svg>
