<?xml version="1.0" encoding="utf-8"?>
<!-- Generator: Adobe Illustrator 22.0.0, SVG Export Plug-In . SVG Version: 6.00 Build 0)  -->
<svg version="1.1" id="Capa_1" xmlns="http://www.w3.org/2000/svg" xmlns:xlink="http://www.w3.org/1999/xlink" x="0px" y="0px"
	 viewBox="0 0 367.4 434.1" style="enable-background:new 0 0 367.4 434.1;" xml:space="preserve">
<g>
	<g>
		<path d="M184.4,214.5c-59.1,0-107.3-48.1-107.3-107.3C77.1,48.1,125.2,0,184.4,0c59.1,0,107.3,48.1,107.3,107.3
			C291.6,166.4,243.5,214.5,184.4,214.5z M184.4,27c-44.3,0-80.3,36-80.3,80.3s36,80.3,80.3,80.3s80.3-36,80.3-80.3
			S228.6,27,184.4,27z"/>
	</g>
	<g>
		<path d="M179.6,434.1c-29.6,0-59.9-3.5-85.9-10.1c-32.5-8.2-57-20.3-73-36.1C7,374.3,0,358.5,0,341c0-38.8,25.7-89.2,67-131.6
			c5.2-5.3,13.8-5.4,19.1-0.2c5.3,5.2,5.4,13.8,0.2,19.1C50.3,265.2,27,309.4,27,341c0,10.2,4.1,19.3,12.6,27.7
			c27.7,27.3,92.2,39,143.9,38.4c75.5-0.9,156.8-22.2,156.8-66.9c0-31.4-23.1-75.3-58.9-111.9c-5.2-5.3-5.1-13.9,0.2-19.1
			c5.3-5.2,13.9-5.1,19.1,0.2c41.1,42,66.6,92.1,66.6,130.8c0,22.3-11.2,53.2-64.6,74c-42.6,16.6-92.8,19.6-118.9,19.9
			C182.4,434.1,181,434.1,179.6,434.1z"/>
	</g>
</g>
</svg>
