<svg xmlns="http://www.w3.org/2000/svg" xmlns:xlink="http://www.w3.org/1999/xlink" width="50" height="50" viewBox="0 0 50 50">
  <defs>
    <clipPath id="clip-path">
      <rect id="Rectangle_8616" data-name="Rectangle 8616" width="50" height="50" stroke="#707070" stroke-width="1"/>
    </clipPath>
  </defs>
  <g id="Mask_Group_566" data-name="Mask Group 566" clip-path="url(#clip-path)">
    <path id="Path_24922" data-name="Path 24922" d="M605.01,316.889a20.99,20.99,0,0,1-.042,3.043,2.6,2.6,0,0,1-.928,1.5c-.6.469-1.235.079-1.706-.408q-6.956-7.2-13.89-14.421a1.451,1.451,0,0,1,.014-2.325q6.929-7.226,13.892-14.419c.472-.489,1.112-.868,1.707-.388a2.439,2.439,0,0,1,.911,1.512c.108,1.925.082,3.861.028,5.791-.025.9.213,1.226,1.181,1.24a20.979,20.979,0,0,1,20.332,18.107,56.444,56.444,0,0,1,.238,5.677c.026.834-.2,1.6-1.093,1.852-.981.281-1.574-.251-2.025-1.093a17.153,17.153,0,0,0-11.733-9.09,44.581,44.581,0,0,0-6.141-.549c-.6-.048-.752.291-.744.818.016,1.05,0,2.1,0,3.151Z" transform="translate(-582.308 -281.491)"/>
  </g>
</svg>
