<svg id="Twitter_icon" data-name="Twitter icon" xmlns="http://www.w3.org/2000/svg" width="32" height="32" viewBox="0 0 32 32">
  <path fill="#fff" id="Twitter" class="cls-2" d="M1148.98,2109.66a6.658,6.658,0,0,1-2,.55,3.562,3.562,0,0,0,1.54-1.95,6.867,6.867,0,0,1-2.22.85,3.464,3.464,0,0,0-2.54-1.11,3.506,3.506,0,0,0-3.48,3.53,3.591,3.591,0,0,0,.09.81,9.827,9.827,0,0,1-7.17-3.7,3.582,3.582,0,0,0-.47,1.78,3.536,3.536,0,0,0,1.54,2.94,3.247,3.247,0,0,1-1.57-.44v0.05a3.516,3.516,0,0,0,2.79,3.46,3.465,3.465,0,0,1-.92.13,2.815,2.815,0,0,1-.65-0.07,3.489,3.489,0,0,0,3.25,2.46,6.893,6.893,0,0,1-4.32,1.51,5.61,5.61,0,0,1-.83-0.05,9.681,9.681,0,0,0,5.33,1.59,9.922,9.922,0,0,0,9.91-10.06c0-.15-0.01-0.3-0.01-0.45A7.167,7.167,0,0,0,1148.98,2109.66Z" transform="translate(-1124 -2098)"/>
</svg>
