<svg xmlns="http://www.w3.org/2000/svg" width="20" height="20.005" viewBox="0 0 20 20.005"><g data-name="Group 21097" fill="#3991e9"><path data-name="Path 10825" d="M10.195 0a2.872 2.872 0 01.378.188.935.935 0 01.4.807 65.44 65.44 0 010 1.716.968.968 0 01-.788.978.93.93 0 01-1.046-.527 1.418 1.418 0 01-.1-.51c-.013-.474.012-.949-.009-1.423a1.081 1.081 0 01.78-1.23z"/><path data-name="Path 10826" d="M0 9.803a.2.2 0 00.033-.046.953.953 0 01.982-.728q.838-.01 1.677 0a.96.96 0 011.017.976.979.979 0 01-1.017.963c-.559.008-1.118 0-1.677 0A1.006 1.006 0 010 10.193z" opacity=".2"/><path data-name="Path 10827" d="M18.141 10.97c-.293 0-.586.009-.878 0a.967.967 0 01-.589-1.737.818.818 0 01.406-.17 29.468 29.468 0 012.123 0 .878.878 0 01.79.817.934.934 0 01-.54.989 1.491 1.491 0 01-.491.1c-.272.016-.546 0-.819 0z" opacity=".7"/><path data-name="Path 10828" d="M9.03 18.136c0-.286-.008-.573 0-.858a.948.948 0 01.778-.962.936.936 0 011.053.517 1.245 1.245 0 01.1.47c.012.566.015 1.132 0 1.7a.967.967 0 01-1.456.873.954.954 0 01-.483-.878c-.006-.286 0-.572 0-.858z" opacity=".5"/><path data-name="Path 10829" d="M3.641 7.338a2.824 2.824 0 01-.442-.161 56.787 56.787 0 01-1.438-.824.968.968 0 11.955-1.681c.489.272.972.553 1.454.836a.938.938 0 01.489.967.9.9 0 01-.655.794 2.614 2.614 0 01-.363.069z" opacity=".1"/><path data-name="Path 10830" d="M18.762 5.564a.869.869 0 01-.429.723c-.54.325-1.084.645-1.641.941a.958.958 0 01-1-1.619 16.294 16.294 0 011.758-1.007.951.951 0 011.312.962z" opacity=".8"/><path data-name="Path 10831" d="M2.167 15.494a1.013 1.013 0 01-.917-.658.941.941 0 01.348-1.093 23.21 23.21 0 011.691-.969.955.955 0 01.924 1.665c-.545.342-1.108.656-1.67.969a1.388 1.388 0 01-.376.086z" opacity=".3"/><path data-name="Path 10832" d="M7.339 16.324a2.653 2.653 0 01-.154.455q-.413.752-.853 1.489a.963.963 0 01-1.06.485.947.947 0 01-.723-.738.978.978 0 01.111-.716c.28-.491.558-.984.848-1.47a.977.977 0 011.124-.458 1.015 1.015 0 01.707.953z" opacity=".4"/><path data-name="Path 10833" d="M15.495 17.785a1.014 1.014 0 01-.666.936.9.9 0 01-1.059-.329c-.36-.563-.7-1.142-1-1.737a.941.941 0 01.415-1.211.955.955 0 011.249.3c.339.539.645 1.1.954 1.655a1.757 1.757 0 01.107.386z" opacity=".6"/><path data-name="Path 10834" d="M7.333 3.691a.978.978 0 01-.673.925.88.88 0 01-1.055-.323c-.36-.563-.7-1.142-1-1.737a.941.941 0 01.42-1.209.956.956 0 011.248.3c.336.533.64 1.086.945 1.637a1.866 1.866 0 01.115.407z" opacity=".14"/><path data-name="Path 10835" d="M15.504 2.202a2.851 2.851 0 01-.164.491c-.267.491-.541.978-.835 1.453a.965.965 0 01-1.052.5.9.9 0 01-.732-.7.94.94 0 01.093-.736c.286-.5.568-1.008.866-1.5a.971.971 0 011.112-.441 1.018 1.018 0 01.712.933z" opacity=".9"/><path data-name="Path 10836" d="M17.782 15.502a2.656 2.656 0 01-.439-.153c-.5-.267-.988-.547-1.478-.828a.968.968 0 11.936-1.692q.75.414 1.485.856a.93.93 0 01.466.977.881.881 0 01-.622.774 2.761 2.761 0 01-.348.066z" opacity=".7"/></g></svg>