<svg xmlns="http://www.w3.org/2000/svg" width="20" height="20.005" viewBox="0 0 20 20.005">
  <g id="Group_21097" data-name="Group 21097" transform="translate(-485 -186)">
    <path id="Path_10825" data-name="Path 10825" d="M664.646,186a2.872,2.872,0,0,1,.378.188.935.935,0,0,1,.4.807c.006.572.009,1.144,0,1.716a.968.968,0,0,1-.788.978.93.93,0,0,1-1.046-.527,1.418,1.418,0,0,1-.1-.51c-.013-.474.012-.949-.009-1.423a1.081,1.081,0,0,1,.78-1.23Z" transform="translate(-169.451)" fill="#3991e9"/>
    <path id="Path_10826" data-name="Path 10826" d="M485,365.3a.2.2,0,0,0,.033-.046.953.953,0,0,1,.982-.728q.838-.01,1.677,0a.96.96,0,0,1,1.017.976.979.979,0,0,1-1.017.963c-.559.008-1.118,0-1.677,0a1.006,1.006,0,0,1-1.015-.775Z" transform="translate(0 -169.497)" fill="#3991e9" opacity="0.2"/>
    <path id="Path_10827" data-name="Path 10827" d="M809.12,366.775c-.293,0-.586.009-.878,0a.967.967,0,0,1-.589-1.737.818.818,0,0,1,.406-.17c.707-.017,1.417-.034,2.123,0a.878.878,0,0,1,.79.817.934.934,0,0,1-.54.989,1.491,1.491,0,0,1-.491.1c-.272.016-.546,0-.819,0Z" transform="translate(-305.979 -169.805)" fill="#3991e9" opacity="0.7"/>
    <path id="Path_10828" data-name="Path 10828" d="M663.554,510.1c0-.286-.008-.573,0-.858a.948.948,0,0,1,.778-.962.936.936,0,0,1,1.053.517,1.245,1.245,0,0,1,.1.47c.012.566.015,1.132,0,1.7a.967.967,0,0,1-1.456.873.954.954,0,0,1-.483-.878c-.006-.286,0-.572,0-.858Z" transform="translate(-169.524 -305.964)" fill="#3991e9" opacity="0.5"/>
    <path id="Path_10829" data-name="Path 10829" d="M511.757,278.4a2.824,2.824,0,0,1-.442-.161c-.484-.266-.962-.544-1.438-.824a.968.968,0,1,1,.955-1.681c.489.272.972.553,1.454.836a.938.938,0,0,1,.489.967.9.9,0,0,1-.655.794A2.614,2.614,0,0,1,511.757,278.4Z" transform="translate(-23.116 -85.062)" fill="#3991e9" opacity="0.1"/>
    <path id="Path_10830" data-name="Path 10830" d="M791.622,276.363a.869.869,0,0,1-.429.723c-.54.325-1.084.645-1.641.941a.958.958,0,0,1-1-1.619,16.294,16.294,0,0,1,1.758-1.007A.951.951,0,0,1,791.622,276.363Z" transform="translate(-287.86 -84.799)" fill="#3991e9" opacity="0.8"/>
    <path id="Path_10831" data-name="Path 10831" d="M509.7,439.641a1.013,1.013,0,0,1-.917-.658.941.941,0,0,1,.348-1.093c.551-.344,1.114-.673,1.691-.969a.955.955,0,0,1,.924,1.665c-.545.342-1.108.656-1.67.969A1.388,1.388,0,0,1,509.7,439.641Z" transform="translate(-22.533 -238.147)" fill="#3991e9" opacity="0.3"/>
    <path id="Path_10832" data-name="Path 10832" d="M577.32,490.2a2.653,2.653,0,0,1-.154.455q-.413.752-.853,1.489a.963.963,0,0,1-1.06.485.947.947,0,0,1-.723-.738.978.978,0,0,1,.111-.716c.28-.491.558-.984.848-1.47a.977.977,0,0,1,1.124-.458A1.015,1.015,0,0,1,577.32,490.2Z" transform="translate(-84.981 -287.876)" fill="#3991e9" opacity="0.4"/>
    <path id="Path_10833" data-name="Path 10833" d="M738.588,491.66a1.014,1.014,0,0,1-.666.936.9.9,0,0,1-1.059-.329c-.36-.563-.7-1.142-1-1.737a.941.941,0,0,1,.415-1.211.955.955,0,0,1,1.249.3c.339.539.645,1.1.954,1.655A1.757,1.757,0,0,1,738.588,491.66Z" transform="translate(-238.093 -287.875)" fill="#3991e9" opacity="0.6"/>
    <path id="Path_10834" data-name="Path 10834" d="M577.148,212.824a.978.978,0,0,1-.673.925.88.88,0,0,1-1.055-.323c-.36-.563-.7-1.142-1-1.737a.941.941,0,0,1,.42-1.209.956.956,0,0,1,1.248.3c.336.533.64,1.086.945,1.637A1.866,1.866,0,0,1,577.148,212.824Z" transform="translate(-84.815 -23.133)" fill="#3991e9" opacity="0.14"/>
    <path id="Path_10835" data-name="Path 10835" d="M738.726,211.359a2.851,2.851,0,0,1-.164.491c-.267.491-.541.978-.835,1.453a.965.965,0,0,1-1.052.5.9.9,0,0,1-.732-.7.94.94,0,0,1,.093-.736c.286-.5.568-1.008.866-1.5a.971.971,0,0,1,1.112-.441A1.018,1.018,0,0,1,738.726,211.359Z" transform="translate(-238.222 -23.157)" fill="#3991e9" opacity="0.9"/>
    <path id="Path_10836" data-name="Path 10836" d="M790.648,439.8a2.656,2.656,0,0,1-.439-.153c-.5-.267-.988-.547-1.478-.828a.968.968,0,1,1,.936-1.692q.75.414,1.485.856a.93.93,0,0,1,.466.977.881.881,0,0,1-.622.774A2.761,2.761,0,0,1,790.648,439.8Z" transform="translate(-287.866 -238.298)" fill="#3991e9" opacity="0.7"/>
  </g>
</svg>
