<svg xmlns="http://www.w3.org/2000/svg" xmlns:xlink="http://www.w3.org/1999/xlink" width="60" height="60" viewBox="0 0 60 60">
  <defs>
    <clipPath id="clip-path">
      <rect id="Rectangle_7780" data-name="Rectangle 7780" width="60" height="60" transform="translate(1015 132)" fill="#b9994d" stroke="#707070" stroke-width="1" opacity="0.5"/>
    </clipPath>
  </defs>
  <g id="Mask_Group_436" data-name="Mask Group 436" transform="translate(-1015 -132)" clip-path="url(#clip-path)">
    <path id="plant" d="M16.657,20.612l.8.044a6.426,6.426,0,0,0,1.6,0c4.73-.786,7.83-3.04,9.505-6.9a21.064,21.064,0,0,0,1.246-3.618,1.507,1.507,0,0,0-.193-1.394,1.6,1.6,0,0,0-1.483-.267L28.06,8.5a3.645,3.645,0,0,0-.771.208c-.43.178-.845.371-1.275.549-1.542.652-3.129,1.335-4.656,2.061a8.863,8.863,0,0,0-3.767,3.411c-.222.356-.43.741-.652,1.142-.1.208-.222.415-.341.638l-.46.83-.816-8.423.282-.03.845-.089c.608-.059,1.171-.119,1.735-.222a12.492,12.492,0,0,0,6.184-3.529A9.166,9.166,0,0,0,26.933,1.1a1.781,1.781,0,0,0,.148-.741c-.03-.089-.237-.208-.519-.356H25.495l-.845.222C24,.4,23.33.578,22.647.7A8.529,8.529,0,0,0,16.8,3.707c-.326.445-.638.9-.949,1.364-.148.222-.282.43-.43.652l-.341.489-.193-.563a10.246,10.246,0,0,1-.371-2.121,8.306,8.306,0,0,0-.43-2.284V6.584l-.534-.949a5.578,5.578,0,0,0-3.2-2.462,11.268,11.268,0,0,0-4.819-.608l-.578.044a16.873,16.873,0,0,0-4.463.771c-.3.1-.371.208-.386.252s-.03.148.119.415c.089.163.163.326.252.475a12.608,12.608,0,0,0,.816,1.453A9.776,9.776,0,0,0,3,7.963a8.645,8.645,0,0,0,5.872,1.69,9.143,9.143,0,0,0,5.19-1.32l.445-.3.237,7.889-.178.934-.519-.964L14,15.852c-.03-.044-.074-.089-.119-.148a5.6,5.6,0,0,0-5.16-2.758,47.892,47.892,0,0,0-5.057.534c-.593.089-1.216.178-1.824.252a.347.347,0,0,0-.282.148.337.337,0,0,0,.015.3l.1.237a10.537,10.537,0,0,0,1.008,1.9,9.224,9.224,0,0,0,4.286,3.055c2.224.9,4.6,1.646,7.058.074l.534-.341L13.32,28.5l-.43-.771a7.7,7.7,0,0,0-6.02-3.989c-.534-.074-1.082-.148-1.6-.237-.682-.1-1.379-.208-2.076-.3a11.022,11.022,0,0,0-1.29-.074c-.193,0-.4,0-.608.015a.657.657,0,0,0-.326.074c-.015.03-.059.1-.015.4.03.252.074.489.1.741.133.934.282,1.9.341,2.862a10.821,10.821,0,0,0,1.409,5c.964,1.631,2.506,2.714,4.968,3.514.311.1.608.193.979.282.178.044.371.1.578.163l1.631.475-1.69.1c-.667.044-1.32.089-1.957.119-1.483.089-2.877.178-4.286.282C1.4,37.294.4,37.991.167,39.148a9.927,9.927,0,0,0-.148,2.669c.074.994.534,1.468,1.646,1.661.178.03.356.059.549.089l.519.089.015.222c0,.059.015.119.015.163a3.122,3.122,0,0,1,.03.371A94.814,94.814,0,0,0,4.438,57.091a2.583,2.583,0,0,0,2.032,2.18A12.024,12.024,0,0,0,9,59.745c3.04.133,6.095.193,8.986.252.682.015,1.394-.03,2.076-.074.178-.015.371-.03.549-.03a3.037,3.037,0,0,0,2.64-1.735,11.591,11.591,0,0,0,.534-1.142,41.262,41.262,0,0,0,1.794-6.451c.133-.638.282-1.3.43-1.943.163-.667.341-1.349.519-2s.371-1.364.534-2.061a.977.977,0,0,1,.741-.86,1.847,1.847,0,0,0,1.409-1.424,12.312,12.312,0,0,0,.341-2.447,2.1,2.1,0,0,0-1.542-2.239,11.789,11.789,0,0,0-2.862-.519c-1.824-.089-3.692-.119-5.487-.148l-2.017-.044H15.159l1.112-.563c.771-.386,1.542-.712,2.284-1.008.356-.148.727-.3,1.068-.445a13.569,13.569,0,0,0,8.452-10.009,17.317,17.317,0,0,0,.311-3.277.455.455,0,0,0-.089-.311.575.575,0,0,0-.489-.03q-.934.222-1.69.445c-.964.311-1.943.638-2.877.949l-2.447.8a7.907,7.907,0,0,0-3.381,1.928c-.208.208-.4.43-.593.652-.089.1-.178.208-.282.311l-.578.638.43-6.362ZM16.6,18.4c.03-.133.059-.252.074-.356a5.773,5.773,0,0,1,.148-.593,9.222,9.222,0,0,1,4.656-5.561c1.424-.682,2.906-1.29,4.345-1.883.623-.252,1.275-.519,1.9-.786l.267-.089c.415-.1.845-.193,1.082.059s.163.667.059,1.038c-1.483,5.561-4.271,8.423-9.327,9.565a8.379,8.379,0,0,1-1.483.148c-.222.015-.445.015-.652.044L17.428,20l-.222-.667.208-.119c2.417-1.379,4.523-2.7,6.02-4.819.03-.044.059-.074.089-.119-.341.311-.7.623-1.053.9a29.473,29.473,0,0,1-2.61,1.9c-.608.386-1.246.741-1.913,1.112-.311.163-.623.341-.949.519l-.593.341ZM13.261,7.222c-.341-.044-.652-.089-.979-.133C11.6,7,10.948,6.925,10.31,6.777,9.376,6.554,8.441,6.3,7.537,6.05c-.475-.133-.964-.267-1.438-.386a21.757,21.757,0,0,0,5.768,2.076.908.908,0,0,1,.252.1c.044.03.119.059.208.1l.771.386-.845.178q-.4.089-.756.178a10.186,10.186,0,0,1-1.409.267c-.519.044-1.068.089-1.646.089a8.48,8.48,0,0,1-5.16-1.527A7.729,7.729,0,0,1,1.012,4.286L.79,3.841l.386-.089q.245-.044.445-.089c.311-.059.593-.133.89-.163,2.61-.356,4.953-.578,7.325.178a5.555,5.555,0,0,1,3.722,3.129l.222.489Zm.3,10.187c-.4-.059-.816-.148-1.2-.222a20.221,20.221,0,0,0-3.2-.43l4.819,1.527-.282.341a2.661,2.661,0,0,1-2.165,1.038h-.059a10.819,10.819,0,0,1-8.423-3.841,4.712,4.712,0,0,1-.43-.667,3.608,3.608,0,0,0-.222-.386l-.237-.4.46-.044c.756-.074,1.5-.208,2.224-.341a13.681,13.681,0,0,1,5.22-.237,5.073,5.073,0,0,1,3.811,3.262l.193.489Zm2.7-9.965A20.887,20.887,0,0,0,21.491,3.93L16.256,6.777l-.371-.563.074-.148a7.893,7.893,0,0,1,4.834-4.33c1.157-.311,2.343-.549,3.5-.786L25.761.638A.578.578,0,0,1,26,.652h.03L26.355.7l-.074.326c-.593,2.625-5.546,6.984-9.683,6.984h-.222l-1.2-.044ZM13.127,35.752a34.455,34.455,0,0,1,.326-3.974c.1-.667.208-1.32.311-1.987a108.4,108.4,0,0,0,1.409-12.085l.015-7,.578,6.984a30.51,30.51,0,0,1-.475,9.609c-.074.341-.133.682-.208,1.023a22.813,22.813,0,0,0-.682,6.02c.03.46.089.934.148,1.379.03.208.059.43.074.638l.03.282-.282.044a3.3,3.3,0,0,1-.5.059.738.738,0,0,1-.5-.163C13.142,36.419,13.113,36.138,13.127,35.752Zm-4.434-.475A8.822,8.822,0,0,1,3.77,32.519a9.008,9.008,0,0,1-1.809-4.6c-.119-.875-.208-1.735-.311-2.654-.044-.4-.089-.8-.133-1.216l-.03-.3.3-.03a.161.161,0,0,0,.074-.015,1.045,1.045,0,0,1,.311-.015c.489.074.964.163,1.453.237,1.3.208,2.654.43,3.974.682a6.39,6.39,0,0,1,5.294,5.22,3.637,3.637,0,0,1-.089,1.542c-.044.222-.089.46-.119.667l-.089.712-.445-.563c-.208-.267-.4-.519-.593-.771-.4-.534-.786-1.038-1.2-1.5a6.445,6.445,0,0,0-4.538-2.091,9.714,9.714,0,0,1,4.76,3.144,20.576,20.576,0,0,1,1.75,2.921,2.064,2.064,0,0,1,.148.949,3.482,3.482,0,0,0,.015.4l.03.282-.282.044a7.627,7.627,0,0,1-.979.074A9.543,9.543,0,0,1,8.694,35.278Zm17.483,9.238c-.193.786-.386,1.587-.578,2.373-.475,2.017-.979,4.093-1.527,6.124-.282,1.068-.682,2.135-1.053,3.159-.148.415-.311.845-.46,1.275a2.294,2.294,0,0,1-2.313,1.6c-.252,0-.489.015-.741.015-.519.015-1.038.03-1.572.03h-.489c-3.322-.074-6.213-.163-8.868-.252a5.308,5.308,0,0,1-1.1-.193c-.178-.044-.341-.089-.5-.119a2.152,2.152,0,0,1-1.824-1.987c-.119-.8-.267-1.616-.4-2.4-.163-1.008-.341-2.046-.5-3.084-.237-1.587-.445-3.2-.652-4.76-.074-.549-.148-1.082-.222-1.631-.015-.148-.03-.311-.03-.415v-.1l-.015-.311H26.088l.044.252a.968.968,0,0,1,.03.163A.831.831,0,0,1,26.177,44.516Zm-1.794-6.539c.237.015.475.03.7.03.534.03,1.068.059,1.616.1,1.468.119,2.061.756,2.046,2.224a3.225,3.225,0,0,1-.015.371c-.089,1.72-.771,2.4-2.447,2.4s-3.351.015-5.027.015H14.269v-.133H12.1c-2,0-4.078,0-6.124-.015-1.171-.015-2.358-.074-3.559-.148C1.086,42.751.745,42.381.76,41.031v-.089c0-.237,0-.489.015-.741a1.969,1.969,0,0,1,2.061-2.195c1.557-.148,3.218-.252,5.086-.341C13.483,37.428,19.118,37.68,24.382,37.976ZM20.646,24.052c1.587-.489,3.218-.994,4.775-1.468l1.542-.475a1.724,1.724,0,0,1,.267-.059.275.275,0,0,0,.1-.03l.371-.089-.015.386c-.237,6.362-4.4,11.092-11.4,12.975l-.519.133.148-.5a12.957,12.957,0,0,1,6.258-8.037c.816-.445,1.5-.86,2.121-1.246a.346.346,0,0,0,.1-.133.754.754,0,0,0-.208-.059,8.476,8.476,0,0,0-3.915,1.9,12.019,12.019,0,0,0-4.493,6.006c-.044.133-.1.267-.148.386-.03.059-.044.1-.074.163l-.089.222s-.593,2.387-.623,1.424c-.03-.712-.03-1.2-.03-1.542l-.044-.015.03-.282c.044-.371.089-.727.133-1.1.089-.8.178-1.631.326-2.432A7.426,7.426,0,0,1,20.646,24.052Z" transform="translate(1030.013 132)" fill="#b9994d"/>
  </g>
</svg>
