<svg xmlns="http://www.w3.org/2000/svg" xmlns:xlink="http://www.w3.org/1999/xlink" width="60" height="60" viewBox="0 0 60 60">
  <defs>
    <clipPath id="clip-path">
      <rect id="Rectangle_7784" data-name="Rectangle 7784" width="60" height="60" transform="translate(1015 132)" fill="#b9994d" stroke="#707070" stroke-width="1" opacity="0.5"/>
    </clipPath>
  </defs>
  <g id="Group_438" data-name="Group 438" transform="translate(-1015 -132)" clip-path="url(#clip-path)">
    <g id="flower_شاخه_ای" data-name="flower شاخه ای" transform="translate(1022.993 131.525)">
      <path id="Path_13486" data-name="Path 13486" d="M101.307,121.278a21.8,21.8,0,0,0-3.136-6.853,11.617,11.617,0,0,0-15.1-4,20.382,20.382,0,0,0-7.111,5.714,32.957,32.957,0,0,1-.43-4.576,42.81,42.81,0,0,0-.387-4.339,39.4,39.4,0,0,0-1.482-5.521l-.043-.107-.107.043a1.74,1.74,0,0,1-.58.172c-.365.086-.709.15-.6.752a22.956,22.956,0,0,0,1.074,3.244,14.536,14.536,0,0,1,.709,3.351,90.377,90.377,0,0,1,.064,19.871c-.15,1.332-.322,2.664-.516,3.974-.021.15-.064.322-.107.494a2.815,2.815,0,0,0-.129,1.246,1.082,1.082,0,0,0,.537.687.759.759,0,0,0,.365.086.6.6,0,0,0,.279-.064l.043-.021v-.064c.687-4.833,1.2-9.753,1.547-14.629,2.879,4.1,8.443,6.552,14.243,6.23a14.889,14.889,0,0,0,7.282-2.127,24.135,24.135,0,0,0,3.351-2.728.854.854,0,0,0,.258-.344A.575.575,0,0,0,101.307,121.278ZM76.881,117.5h.086c1.1.15,2.191.3,3.265.43.43.064.881.129,1.289.172l3.845,7.261-.129.086a12.964,12.964,0,0,1-9.023-7.175.45.45,0,0,1,.086-.473A.8.8,0,0,1,76.881,117.5Zm17.959-3.072c-.258.387-.516.752-.795,1.1a18.129,18.129,0,0,0-1.461,1.912,1.345,1.345,0,0,1-1.375.537c-1.01-.064-2.041-.193-3.05-.322l-.494-.064a1.409,1.409,0,0,1-.322-.15.163.163,0,0,0-.086-.043c.021-.086.021-.193.043-.322a1.615,1.615,0,0,1,.064-.408c.58-.537,1.117-1.117,1.633-1.654a25.554,25.554,0,0,1,1.869-1.869,10.278,10.278,0,0,0,.838-.838,11.6,11.6,0,0,1,1.16-1.117c.387.3.881.644,1.4,1.01.494.365,1.031.73,1.461,1.074A7.506,7.506,0,0,0,94.84,114.425Zm-3.523-3.179c-.473.473-.924.9-1.353,1.375-.387.408-.752.838-1.117,1.246l-.021.021.086.064h0l-.086-.064c-.387.451-.795.9-1.2,1.332a1.525,1.525,0,0,1-.3.215,1.247,1.247,0,0,0-.408.344,4.441,4.441,0,0,0-.279,1.053c-.043.172-.064.344-.107.473-.559-.021-1.2-.086-1.869-.129-.709-.043-1.461-.107-2.191-.15.6-.838,1.224-1.719,1.847-2.6.967-1.353,1.955-2.771,2.814-3.953a.478.478,0,0,1,.279-.172,11.034,11.034,0,0,1,4.447.365C91.661,110.88,91.489,111.074,91.317,111.246Zm-6.66.773c-.795,1.182-1.611,2.406-2.277,3.437a15.018,15.018,0,0,0-.795,1.568c-.73-.086-1.5-.172-2.32-.236-.838-.086-1.719-.172-2.578-.279a19.178,19.178,0,0,1,8.872-5.886C85.281,111.1,84.98,111.546,84.658,112.019Zm-2.406,5.994.988.064c1.353.086,2.621.193,3.888.279a.6.6,0,0,1,.387.258c1.267,2.17,2.535,4.382,3.759,6.509l.172.322a1.356,1.356,0,0,0,.086.193v.021a11.761,11.761,0,0,1-4.748.107h0c-.107-.021-.258-.193-.408-.473-.344-.687-.709-1.375-1.053-2.062-.58-1.16-1.182-2.342-1.8-3.5a7.44,7.44,0,0,0-.9-1.224A4.193,4.193,0,0,0,82.252,118.012Zm7.089.516c1.1.215,2.148.43,3.179.644a.6.6,0,0,1,.236.236c.9,1.353,1.8,2.728,2.728,4.146l.559.838c-1.182.387-2.385.773-3.545,1.16l-3.716-7.111Zm3.609-.086a21.529,21.529,0,0,0,1.611-2.148,23.738,23.738,0,0,1,1.783-2.385c.58,1.031,1.246,2.191,1.869,3.308.623,1.1,1.246,2.234,1.847,3.265C97.569,119.774,95.313,119.13,92.95,118.442Zm7.411,3.029v.064l-1.7,1.1c-.644.408-1.267.816-1.933,1.246-.967-1.4-1.933-2.771-2.9-4.146v-.021C96.022,120.29,98.192,120.87,100.361,121.471Z" transform="translate(-56.768 -77.045)" fill="#b9994d"/>
      <path id="Path_13487" data-name="Path 13487" d="M5.72,6.574h0a18.392,18.392,0,0,0-3.244,4.49A18.893,18.893,0,0,0,.092,17.208a6.488,6.488,0,0,0,.3,3.351,6.165,6.165,0,0,0,2.965,3.008,22.7,22.7,0,0,0,10.87,2.191A10.877,10.877,0,0,0,20.349,23.8c2.642-2.019,4.039-5.822,3.738-10.183a14.15,14.15,0,0,0-1.2-4.919,9.212,9.212,0,0,0-3.115-3.8,10.968,10.968,0,0,0-8.292-1.1A13.8,13.8,0,0,0,7.89,5.027h0a9.093,9.093,0,0,0-.9.537h0l-.644.473h0C6.128,6.209,5.913,6.4,5.72,6.574Zm10.763,3.609a4.007,4.007,0,0,0-3.093-1.4,2.932,2.932,0,0,0-2.728,1.74,3.161,3.161,0,0,0,.279,3.351,1.273,1.273,0,0,0,.752.58.955.955,0,0,0,.687-.236c.559-.43.6-.859.15-1.5A1.837,1.837,0,0,1,12.315,11a2.207,2.207,0,0,1,1.633-.752,2.267,2.267,0,0,1,1.719.816,3.477,3.477,0,0,1,.752,2.728A5.476,5.476,0,0,1,11.327,18.6c-2.277.064-4.425-1.976-4.855-4.576C5.978,11,6.88,7.734,9.114,5.994h0a7.589,7.589,0,0,1,3.308-1.547c4.683-.945,8.829,1.912,9.9,6.745a13.639,13.639,0,0,1-.838,8.507h0a3.5,3.5,0,0,1-.236.494,10.034,10.034,0,0,1-1.31,2,8.118,8.118,0,0,1-7.648,2.449,40.436,40.436,0,0,1-7.905-2.213c-2.32-.838-3.351-2.642-2.986-5.22A22.712,22.712,0,0,1,4.646,8.765l.752-.9h0L6.107,7.2,5.591,9.238a9.962,9.962,0,0,0,.3,6.574c1.246,2.814,3.609,4.382,6.165,4.039a6.7,6.7,0,0,0,5.628-5.714A5.008,5.008,0,0,0,16.482,10.183Z" transform="translate(0 0)" fill="#b9994d"/>
    </g>
  </g>
</svg>
