<svg xmlns="http://www.w3.org/2000/svg" xmlns:xlink="http://www.w3.org/1999/xlink" width="60" height="60" viewBox="0 0 60 60">
  <defs>
    <clipPath id="clip-path">
      <rect id="Rectangle_7778" data-name="Rectangle 7778" width="60" height="60" transform="translate(1015 132)" fill="#b9994d" stroke="#707070" stroke-width="1" opacity="0.5"/>
    </clipPath>
  </defs>
  <g id="Mask_Group_435" data-name="Mask Group 435" transform="translate(-1015 -132)" clip-path="url(#clip-path)">
    <g id="cup" transform="translate(1028 131.996)">
      <path id="Path_13465" data-name="Path 13465" d="M17.878,253.952a6.391,6.391,0,0,1-.456-.83l-.295.007c.024.277.047.553.059.83v.009C17.418,253.965,17.648,253.958,17.878,253.952Zm-2.94-.878c-.076,0-.152.011-.228.021-.595.078-1.18.158-1.777.19q-.1.2-.191.4a3.551,3.551,0,0,1-.3.5c.314-.034.626-.072.937-.118a11.142,11.142,0,0,1,1.569-.106v-.018Q14.939,253.508,14.938,253.074Zm7.108.228c-.031.268-.066.537-.1.805q.411.044.821.094c.023-.3.045-.591.066-.885A7.535,7.535,0,0,0,22.046,253.3Zm-4.168.651a6.391,6.391,0,0,1-.456-.83l-.295.007c.024.277.047.553.059.83v.009C17.418,253.965,17.648,253.958,17.878,253.952Zm16.757,10.607a4.269,4.269,0,0,0-2.006-3.151,3.821,3.821,0,0,0-1.888-.815,3.493,3.493,0,0,0,.185-.686c.054-.974.14-1.951.105-2.923a2.353,2.353,0,0,0-1.65-2.454,21.72,21.72,0,0,0-2.267-.595c-.434-.081-.87-.149-1.308-.212-.379-.055-.759-.107-1.138-.161a4.393,4.393,0,0,1-.712.787c.478.061.955.126,1.43.2.5.077,1,.162,1.495.259.811.159,1.607.4,2.4.638a1.092,1.092,0,0,1,.768.916,15.14,15.14,0,0,1,.1,3.712c0,.084-.019.169-.024.252-.044.664-.028.625.593.864A5.387,5.387,0,0,1,33.3,263.1a4.541,4.541,0,0,1,.678,2.066,9.9,9.9,0,0,1-.322,4.082,4.223,4.223,0,0,1-1.448,2.105,9.183,9.183,0,0,1-2.253,1.321,5.483,5.483,0,0,1-3.576-.119,6.379,6.379,0,0,1-.973-.384,1.968,1.968,0,0,0-1.932.114,3.311,3.311,0,0,1-.625.267,3.718,3.718,0,0,0-1.814,1.321,10.18,10.18,0,0,0-1.817,3.822,15.067,15.067,0,0,0-.251,1.788,3.429,3.429,0,0,0,.769,2.132,6.672,6.672,0,0,0,3.07,2.485c.146.073.291.15.436.226-.01.057-.019.115-.029.172-3.871.706-7.739,1.074-11.577-.238.06-.034.151-.084.241-.14a20.6,20.6,0,0,0,2.167-1.356,5.765,5.765,0,0,0,1.664-2.54,1.676,1.676,0,0,0,.067-.677,10.1,10.1,0,0,0-2.051-5.653,3.548,3.548,0,0,0-2.015-1.387,1.53,1.53,0,0,1-.418-.2,1.9,1.9,0,0,0-1.96-.122,7.46,7.46,0,0,1-3.286.746,3.831,3.831,0,0,1-1.536-.35,8.134,8.134,0,0,1-2.5-1.682,4.189,4.189,0,0,1-1.1-2.354,8.981,8.981,0,0,1,.254-4.951,1.416,1.416,0,0,1,.181-.391,5.74,5.74,0,0,1,2.937-2.049c.259-.069.36-.161.351-.432-.036-1.121-.064-2.241-.074-3.362a8.479,8.479,0,0,1,.108-.859A1.311,1.311,0,0,1,5.846,255.3l.87-.2c.444-.106.889-.21,1.335-.307a8.438,8.438,0,0,1-1.574-.549q-.453.107-.9.218l-.08.021a2.2,2.2,0,0,0-1.706,1.927,11.155,11.155,0,0,0,.191,4.186A4.486,4.486,0,0,0,1.5,261.9,3.372,3.372,0,0,0,.281,263.82a11.389,11.389,0,0,0-.026,4.908,5.692,5.692,0,0,0,2.774,3.867,10.683,10.683,0,0,0,1.483.733,5.023,5.023,0,0,0,2.955.156,12.871,12.871,0,0,0,2.186-.691,1.422,1.422,0,0,1,1.115-.041c.364.157.719.337,1.086.485a2.606,2.606,0,0,1,1.2.954,10.419,10.419,0,0,1,1.9,4.816,3.657,3.657,0,0,1-1.327,3.2,16.6,16.6,0,0,1-2.118,1.362,1.912,1.912,0,0,0-.7.736,2.592,2.592,0,0,0-.186,1.192c.083,1.02.228,2.034.376,3.048a.766.766,0,0,0,.3.458,8.016,8.016,0,0,0,2.828,1.034,6.416,6.416,0,0,0,.783.09h4.922a1.32,1.32,0,0,1,.278-.062,7.982,7.982,0,0,0,2.876-.779c.328-.132.707-.3.764-.741q.189-1.469.364-2.941a1.952,1.952,0,0,0-1.225-2.232,5.22,5.22,0,0,1-2.88-2.707,3.029,3.029,0,0,1-.249-1.366,9.209,9.209,0,0,1,1.165-3.879,4.118,4.118,0,0,1,2.162-2.272c.3-.107.588-.276.892-.387a1.043,1.043,0,0,1,.557-.092,7.667,7.667,0,0,1,1,.37,7.648,7.648,0,0,0,3.107.562,5.868,5.868,0,0,0,2.019-.457,8.488,8.488,0,0,0,2-1.265A4.528,4.528,0,0,0,34.089,270,10.661,10.661,0,0,0,34.635,264.559ZM23.373,285.826c-.166.79-.346,1.576-.5,2.367a.481.481,0,0,1-.344.4,11.04,11.04,0,0,1-3.491.711c-.726.04-1.461-.111-2.194-.139-.476-.018-.955.054-1.432.04a9.284,9.284,0,0,1-1.572-.141,13.665,13.665,0,0,1-1.657-.5.466.466,0,0,1-.27-.277c-.224-.986-.43-1.976-.629-2.967a3.007,3.007,0,0,1,0-.539,14.829,14.829,0,0,0,4.112,1,9.59,9.59,0,0,0,2.2-.017c1.251-.072,2.5-.152,3.75-.278.7-.07,1.4-.238,2.16-.374C23.458,285.337,23.424,285.583,23.373,285.826Zm-6.187-31.856c.231,0,.461-.011.692-.017a6.391,6.391,0,0,1-.456-.83l-.295.007c.024.277.047.553.059.83Zm-6.088.348c.449-.044.9-.085,1.345-.135.314-.034.626-.072.937-.118a11.142,11.142,0,0,1,1.569-.106c.2,0,.407,0,.61,0-.005-.295-.01-.589-.015-.884a5.017,5.017,0,0,0-.607,0c-.076,0-.152.011-.228.021-.595.078-1.18.158-1.777.19-.239.014-.481.019-.725.014h0c-.128.21-.261.418-.4.623-.017.026-.053.04-.121.087q-.042-.355-.1-.7-.32.018-.639.053.087.468.148.949S11.1,254.316,11.1,254.317Zm7.346-1.183-.241-.014c-.26-.01-.52-.005-.781,0l-.295.007c-.181.005-.363.008-.543.006-.071,0-.141,0-.212-.006.005.281.014.563.024.844.264,0,.527,0,.791,0,.231,0,.461-.011.692-.017.426-.012.852-.024,1.278-.024A5.672,5.672,0,0,1,18.445,253.134Z" transform="translate(0 -230.12)" fill="#b9994d"/>
      <path id="Path_13466" data-name="Path 13466" d="M181.21,271.095a.821.821,0,0,0,.191.034l.6.018q.809.023,1.619.043l1.062.024c.373.007.749-.036,1.119-.005l.057,0a6.151,6.151,0,0,1-.728-.327c-.344.01-.688.016-1.032.015-.271,0-.542-.015-.813-.034-.432-.028-.866-.068-1.3-.084l-.16-.005a2.425,2.425,0,0,0-.629.1Z" transform="translate(-164.772 -246.224)" fill="#b9994d"/>
      <path id="Path_13467" data-name="Path 13467" d="M93.07,272.57a.665.665,0,0,1-.507.675,13.236,13.236,0,0,1-1.554.3q-.37.056-.74.1c-.218.029-.438.055-.656.08q-.409.046-.819.083l-.451.038c-.315.024-.632.045-.948.061-.225.013-.45.022-.675.029s-.455.013-.683.015l-.481,0-.383,0c-1.016-.013-2.034.091-3.052.152-.241.015-.481.027-.723.034l-.082,0a6.733,6.733,0,0,1-.885-.045c-.193-.02-.386-.044-.58-.063-.1-.011-.2-.02-.294-.028a7.966,7.966,0,0,0-1.115-.071c-.3.019-.6.026-.9.023q-.29,0-.579-.018c-.231-.011-.462-.027-.694-.046l-.587-.058c-.809-.088-1.616-.207-2.425-.3a6.08,6.08,0,0,1-.894-.121,2.819,2.819,0,0,1-.88-.374.538.538,0,0,1,.055-.913,3.659,3.659,0,0,1,.75-.347l.045-.015a10.443,10.443,0,0,1,1.512-.4,2.972,2.972,0,0,0,1.644-.178l.053,0,1.228-.035,2.17-.063a.439.439,0,0,1,.18,0,2.36,2.36,0,0,1,.272.168c-.09.063-.175.17-.27.181-.646.069-1.3.105-1.943.175-.168.018-.335.034-.5.048l-.384.033-.236.019a18.3,18.3,0,0,0-2.428.307,7.769,7.769,0,0,0-1.106.325c-.15.056-.3.114-.449.172,0,.025.006.051.01.076.629.057,1.26.105,1.888.173.474.051.948.107,1.422.164l.618.073.7.081.56.063c.588.064,1.178.121,1.768.163.264.019.529.03.793.034q.291.007.582,0c.311,0,.623-.007.935-.013.25-.005.5-.011.751-.013.16,0,.319,0,.479,0,.684,0,1.37.073,2.053.051.33-.01.659-.046.987-.087l.45-.056c.131-.016.263-.032.394-.045l.282-.029.67-.067.929-.094.406-.041.81-.082.684-.069,1.792-.182a2.3,2.3,0,0,0,.23-.045l.019-.126c-.69-.164-1.374-.372-2.069-.51q-.25-.05-.5-.086l-.212-.029c-.171-.023-.342-.044-.513-.063-.811-.093-1.626-.157-2.442-.221a.468.468,0,0,0,.089-.253l.022-.17c.289-.005.578-.007.866,0-.012.153-.023.306-.034.46a7.051,7.051,0,0,0,.742-.439,18.465,18.465,0,0,1,1.966.177c.075.011.15.023.224.035a14.481,14.481,0,0,1,2.171.653A.606.606,0,0,1,93.07,272.57Z" transform="translate(-64.798 -246.499)" fill="#b9994d"/>
      <path id="Path_13468" data-name="Path 13468" d="M30.737,376.146c-.455,0-.912-.026-1.364.006-.752.054-1.5.161-2.252.219a2.742,2.742,0,0,1-1.743-.48,3.684,3.684,0,0,1-1.451-2.377,4.928,4.928,0,0,1,.806-3.849,1.164,1.164,0,0,1,.25-.258c.362-.306.513-.314.87-.009.219.187.4.422.629.594a.573.573,0,0,0,.439.089.72.72,0,0,1,.969.56,18.433,18.433,0,0,0,.853,2.4,8.128,8.128,0,0,0,1.1,1.507c.348.431.736.828,1.1,1.248.07.082.158.238.125.3-.049.09-.2.124-.3.182C30.754,376.233,30.745,376.189,30.737,376.146ZM27.1,370.755c-.714.333-.99-.178-1.294-.641-.033-.051-.065-.1-.1-.15-.248-.37-.451-.373-.633.025a4.4,4.4,0,0,0,.179,4.719,1.759,1.759,0,0,0,1.32.845c.957.016,1.917-.093,2.875-.15l.019-.1A8.021,8.021,0,0,1,27.1,370.755Z" transform="translate(-21.647 -335.699)" fill="#b9994d"/>
      <path id="Path_13469" data-name="Path 13469" d="M283.078,376.186a12.769,12.769,0,0,0-1.478-.259c-.608-.035-1.222.018-1.833.015a2.6,2.6,0,0,1-.5-.1,1.883,1.883,0,0,1,.2-.386c.465-.538.95-1.057,1.413-1.6a7.266,7.266,0,0,0,1.529-3.227,2.433,2.433,0,0,1,.33-.687.434.434,0,0,1,.633-.14.407.407,0,0,0,.541-.117,5.991,5.991,0,0,0,.674-.646c.179-.247.349-.18.521-.073a1.472,1.472,0,0,1,.49.415,4.845,4.845,0,0,1,.767,4.053,3.237,3.237,0,0,1-1.772,2.374A10.826,10.826,0,0,1,283.078,376.186Zm-2.23-1.117c.371.039.667.074.964.1.607.053,1.214.121,1.823.141a1.733,1.733,0,0,0,1.354-.728,4.4,4.4,0,0,0,.22-4.985.277.277,0,0,0-.482-.022c-.066.085-.12.18-.18.27-.306.459-.577.979-1.294.641A8.091,8.091,0,0,1,280.848,375.069Z" transform="translate(-253.951 -335.43)" fill="#b9994d"/>
      <path id="Path_13470" data-name="Path 13470" d="M166.673,622.912c-.409,0-.819.013-1.228,0a1.055,1.055,0,0,1-1.179-1.077c-.082-.6.1-.891.71-.917.8-.034,1.6.009,2.4.014a1.237,1.237,0,0,0,.316-.039c1.141-.289,1.621.157,1.4,1.3a.8.8,0,0,1-.766.737c-.55.04-1.105.01-1.658.01Zm1.987-1.523c-.21,0-.383,0-.557,0-.191.005-.382.027-.572.027-.754,0-1.508-.005-2.262-.006a1.332,1.332,0,0,0-.212.036c-.18.03-.226.13-.2.307.088.567.295.787.873.805.769.024,1.539.019,2.308.007a.543.543,0,0,0,.617-.563A5.7,5.7,0,0,0,168.661,621.389Z" transform="translate(-149.358 -564.52)" fill="#b9994d"/>
      <path id="Path_13471" data-name="Path 13471" d="M36.359,6.5c-.1-.363-.342-.454-.71-.361a4.968,4.968,0,0,0-.579.2c-.344.136-.684.279-1.035.424-.1-.5-.167-.961-.295-1.408-.216-.747-.528-.9-1.234-.6-.527.222-1.034.49-1.561.742a4.363,4.363,0,0,0-.217-.437c-.316-.494-.61-1.006-.973-1.464-.262-.33-.508-.316-.858-.069-.242.171-.47.363-.7.543-.19-.189-.348-.373-.534-.523a.7.7,0,0,0-1.1.1,7.265,7.265,0,0,0-.684.84c-.482.746-.935,1.511-1.382,2.24-.168-.409-.338-.885-.553-1.341a20.481,20.481,0,0,0-2.958-4.267,6.445,6.445,0,0,0-.872-.865c-.5-.412-.849-.3-1.052.316-.135.412-.248.83-.374,1.246-.056.189-.116.377-.2.644-.338-.353-.607-.681-.924-.954a12.638,12.638,0,0,0-1.4-1.08c-.45-.289-.759-.168-1,.3-.138.267-.266.541-.387.816-.149.337-.286.679-.411.976-.672-.271-1.295-.565-1.944-.772-.58-.185-.755-.04-.875.558-.1.49-.193.982-.289,1.471-.413-.063-.779-.145-1.148-.169-.519-.033-.729.3-.58.8.276.921.541,1.847.769,2.781.17.7.271,1.408.4,2.092-.564-.144-1.067-.3-1.583-.4-.471-.085-.733.157-.77.628-.024.288-.031.58-.077.865-.105.649-.231,1.295-.333,1.855-.83-.043-1.6-.12-2.362-.109-.619.009-.814.35-.658.947.13.5.243,1,.374,1.542-.176.008-.293.015-.411.019-.8.024-.976.238-.873,1.031a1.574,1.574,0,0,0,.047.211,25.618,25.618,0,0,0,1.981,5.3A7.571,7.571,0,0,0,7.794,23.4a9.707,9.707,0,0,0,1.318.964,8.266,8.266,0,0,0,1.222.618,7.994,7.994,0,0,0,2.116.541,8.807,8.807,0,0,0,1.236.053.376.376,0,0,1,.3.16c.08.229.156.461.23.7.058.181.116.365.174.554l.058.02.058.333.587.058q-.116-.447-.258-.891-.173-.537-.386-1.069l.43-.222.209-.108c.009.03.018.06.026.089l.416,1.391q.128.43.257.857l.579.018c-.085-.272-.178-.543-.276-.812q-.257-.719-.567-1.423c-.009-.022-.018-.043-.025-.063a.459.459,0,0,1,.1-.513l.021-.025c.155-.18.309-.366.447-.562a3.55,3.55,0,0,0,.3-.5q.1-.2.191-.4c.364-.776.7-1.568,1.044-2.352l.968-.452c0,.877-.014,1.737-.007,2.593q0,.434.012.867v.018q.038,1.5.083,3.008.01.345.022.691c.194.02.387.044.58.063q-.011-.375-.02-.751c-.024-1-.038-2.006-.055-3.009-.005-.295-.01-.589-.015-.884q-.01-.485-.021-.971c-.014-.542-.045-1.085-.112-1.623a.645.645,0,0,1,.282-.677c.2-.144.374-.324.617-.539,0,.165,0,.256,0,.346.021,1.172.031,2.344.061,3.516.005.281.014.563.024.844v.01c.009.264.02.527.032.791,0,.072.006.143.01.216.031.656.07,1.312.112,1.967q.022.356.045.711c0,.032,0,.063.006.1.241-.007.481-.02.723-.034,0-.052,0-.1,0-.154q-.01-.315-.02-.63-.03-.952-.069-1.9c-.005-.121-.01-.243-.015-.364l-.03-.708v-.009c-.012-.277-.034-.554-.059-.83-.014-.167-.029-.333-.042-.5l.11-.053q.1.282.227.546a6.393,6.393,0,0,0,.456.83,5.584,5.584,0,0,0,.637.81c.106.112.218.22.335.323A5.519,5.519,0,0,0,24.5,26.083c-.021.237-.042.472-.063.705s-.04.449-.06.672l.481,0c.009-.242.019-.483.029-.725L24.9,26.4a1.822,1.822,0,0,1,.03-.2l.63.068c0,.133,0,.261,0,.386,0,.106,0,.209,0,.313l-.019.471c.225-.007.45-.016.675-.029.005-.274.011-.548.018-.822l.005-.215a.427.427,0,0,1,.148-.316,7.806,7.806,0,0,1,.776-.369V26.5c0,.286,0,.57,0,.856l.451-.038c-.015-.286-.029-.573-.045-.859-.009-.158-.019-.316-.029-.473-.019-.3,0-.56.268-.721a.862.862,0,0,1,.092-.046,2.287,2.287,0,0,0,.4-.3c.007.141.015.278.021.413.018.361.035.7.056,1.038a.037.037,0,0,0,0,.01l.054.858c.218-.024.438-.051.656-.08l-.027-.847-.027-.864-.019-.628c0-.128-.008-.256-.012-.383a.147.147,0,0,1,0-.02.5.5,0,0,1,.073-.3c.124-.164.239-.332.347-.5a13.317,13.317,0,0,0,1.359-3.224c.292-.938.489-1.907.714-2.808a5.076,5.076,0,0,0,.75-.334,7.652,7.652,0,0,0,2.378-2.585,13.958,13.958,0,0,0,1.932-6.847A4.46,4.46,0,0,0,36.359,6.5Zm-4.936-.2c.491-.277.991-.539,1.525-.827a3.406,3.406,0,0,1,.122,1.651.256.256,0,0,1-.1.169c-.408.248-.821.487-1.254.741-.141-.521-.281-1.015-.4-1.514A.268.268,0,0,1,31.423,6.3Zm-2.6-1.641c.156-.112.295-.247.468-.394a4.751,4.751,0,0,1,.843,1.5,9.816,9.816,0,0,1,.611,2.85.3.3,0,0,1-.063.217c-.2.186-.416.354-.672.569a13.409,13.409,0,0,0-1.264-4.348C28.667,4.878,28.669,4.771,28.828,4.656Zm-2.258.4c.174-.228.387-.424.581-.634,1.352,1.172,2.623,5.584,1.786,8.71-.173-.332-.307-.636-.483-.914a9.234,9.234,0,0,0-.823-1.177c-.284-.323-.485-.32-.814-.039-.491.422-.953.879-1.444,1.336-.251-.3-.524-.6-.773-.926a.619.619,0,0,1-.1-.361A9.836,9.836,0,0,1,26.569,5.059Zm1.176,9.5-.672.631-1.27-2.3,1.515-1.443c.283.563.563,1.046.773,1.558C28.459,13.9,28.441,13.905,27.745,14.557ZM26.29,15.712c.146.5-.3.735-.521,1.155a12.783,12.783,0,0,0-2.488-4.291l.429-.672A6.842,6.842,0,0,1,26.29,15.712ZM15.907,1.178a7.913,7.913,0,0,1,2.252,2.106.355.355,0,0,1,.017.267c-.165.549-.343,1.1-.51,1.622l-2.5-2.223C15.385,2.426,15.637,1.825,15.907,1.178Zm-3.648,1.28c.33.154.632.288.927.434a11.234,11.234,0,0,1,3.593,2.746,4.34,4.34,0,0,1,.433.62.466.466,0,0,1,.033.3c-.041.224-.106.444-.184.76A11.709,11.709,0,0,0,12,4.059C12.085,3.529,12.168,3.022,12.259,2.458ZM8.882,12.345c.118-.844.252-1.686.391-2.587a4.4,4.4,0,0,1,2.242,1.281l-1.05,2.288c-.5-.236-.986-.46-1.465-.707A.327.327,0,0,1,8.882,12.345Zm.148,1.228a6.888,6.888,0,0,1,.986.514.337.337,0,0,1,.123.283c-.062.34-.158.675-.244,1.021a12.186,12.186,0,0,0-1.54-.515,19.76,19.76,0,0,0-2.073-.245c-.2-.018-.3-.066-.332-.281-.065-.437-.161-.869-.257-1.362A7.646,7.646,0,0,1,9.029,13.572ZM14.506,24.59q-.1.054-.193.1a2.972,2.972,0,0,1-1.644.178c-.153-.02-.306-.045-.456-.073q-.277-.052-.544-.118a8.438,8.438,0,0,1-1.574-.549A7.664,7.664,0,0,1,6.37,20.29a20.873,20.873,0,0,1-1.458-4.334c-.021-.092-.031-.188-.052-.322,2.634-.145,5.009.273,6.976,2.181a9.686,9.686,0,0,1,2.731,5.427q.087.468.148.949s0,0,0,.006A.344.344,0,0,1,14.506,24.59Zm2.439-4.525a6.9,6.9,0,0,1-1.121,3.115c-.128.21-.261.418-.4.623-.017.026-.053.04-.121.087q-.042-.355-.1-.7a10.263,10.263,0,0,0-4.6-7.417,15.665,15.665,0,0,1,2.753-5.906,6.555,6.555,0,0,1,.626.624A13.757,13.757,0,0,1,16.945,20.065Zm.667-.357a19.327,19.327,0,0,0-.009-1.948,14.224,14.224,0,0,0-3.119-7.947,1.651,1.651,0,0,0-.313-.3c-.986-.679-1.2-.511-1.713.231-.116.167-.238.328-.349.481a1.012,1.012,0,0,1-.668-.965c-.224-1.5-.535-2.985-.813-4.476-.01-.057-.022-.114-.047-.243.314.084.589.143.856.232a10.824,10.824,0,0,1,5.188,3.332,15.22,15.22,0,0,1,2.026,3.405,16.331,16.331,0,0,1,1.309,4.344A3.562,3.562,0,0,1,17.612,19.708Zm3.143-7.753c-.18.364-.295.761-.446,1.163-.15-.374-.3-.746-.45-1.118a20.309,20.309,0,0,0-2.027-3.784.7.7,0,0,1-.047-.529c.475-1.655.967-3.3,1.461-4.954.169-.565.354-1.124.532-1.685L19.89,1c.45.577.937,1.129,1.343,1.735A16.285,16.285,0,0,1,23.5,6.786a4.917,4.917,0,0,1,.262,2.657,2.946,2.946,0,0,0-.063.429,1.779,1.779,0,0,1-.518,1.418,3.045,3.045,0,0,0-.483.694c-.221-.146-.422-.3-.639-.417A.866.866,0,0,0,20.755,11.954Zm4.721,12.663-.022.17a.468.468,0,0,1-.089.253c-.076.091-.2.1-.405.036-.086-.028-.17-.058-.254-.089a6.152,6.152,0,0,1-.728-.327,5.694,5.694,0,0,1-1.916-1.645q-.162-.214-.306-.446a4.919,4.919,0,0,1-.714-2.475c-.045-1.781-.058-3.567,0-5.347a15.872,15.872,0,0,1,.429-2.335,5.62,5.62,0,0,1,2,1.847,13.025,13.025,0,0,1,2.259,8.061c-.015.288-.04.576-.073.863-.031.268-.066.537-.1.805C25.532,24.2,25.5,24.406,25.476,24.617ZM28.4,23.271c-.036.058-.074.115-.114.17a4.393,4.393,0,0,1-.712.787,5.538,5.538,0,0,1-.524.406,7.053,7.053,0,0,1-.742.439c.011-.153.022-.306.034-.46q.019-.268.04-.533c.023-.3.045-.591.066-.885.031-.446.059-.89.077-1.335a11.61,11.61,0,0,0-.4-3.72.52.52,0,0,1,.027-.371,13.2,13.2,0,0,1,4.334-4.321.736.736,0,0,1,.112-.024c.048.487.13.966.138,1.447A14.938,14.938,0,0,1,28.4,23.271ZM31.617,16.3c-.081-.985-.161-1.991-.248-3a1.359,1.359,0,0,0-.078-.314c-.195-.575-.481-.678-1.016-.374-.081.046-.165.086-.267.14.041-.685.079-1.342.124-2a.278.278,0,0,1,.094-.142A15.064,15.064,0,0,1,35.493,7.2a.43.43,0,0,1,.1-.012C36.147,9.884,33.56,15.688,31.617,16.3Z" transform="translate(-3.618 0)" fill="#b9994d"/>
    </g>
  </g>
</svg>
