<svg xmlns="http://www.w3.org/2000/svg" xmlns:xlink="http://www.w3.org/1999/xlink" width="60" height="60" viewBox="0 0 60 60">
  <defs>
    <clipPath id="clip-path">
      <rect id="Rectangle_7782" data-name="Rectangle 7782" width="60" height="60" transform="translate(426 132)" fill="#b9994d" stroke="#707070" stroke-width="1" opacity="0.5"/>
    </clipPath>
  </defs>
  <g id="Group_16469" data-name="Group 16469" transform="translate(-426 -132)">
    <g id="Mask_Group_439" data-name="Mask Group 439" clip-path="url(#clip-path)">
      <g id="Group_16468" data-name="Group 16468" transform="translate(430 145.021)">
        <path id="Path_13478" data-name="Path 13478" d="M46.831,39.274a5.022,5.022,0,0,0-.689-1.353c-.049-.061-.652-.812-.984-1.144-.049-.049-.1-.086-.148-.135a.17.17,0,0,0-.049-.037,5.105,5.105,0,0,0-2.029-1.131,3.931,3.931,0,0,0-1.98.123c-.369.172-.726.357-1.107.529a4.958,4.958,0,0,0-2.177-2.288,5.839,5.839,0,0,0-2.853-.738,9.266,9.266,0,0,0-2.054.418,2.974,2.974,0,0,0-.48.258.2.2,0,0,1-.086.049,4.153,4.153,0,0,0-1.943,2.767c-.566-.394-1.156-.775-1.71-1.205a2.987,2.987,0,0,0-.467-.283,3.759,3.759,0,0,0-1.218-.369h0a5.635,5.635,0,0,0-.787-.012H26a4.186,4.186,0,0,0-2.841,1.316l-.664.9c-.148.381-.283.726-.43,1.082A8.331,8.331,0,0,0,22,39.053a5.16,5.16,0,0,0,.344,2.054c.049.1.111.209.172.307s.123.2.184.283a4.214,4.214,0,0,0,2.829,1.771c-.148.406-.271.75-.406,1.131a5.733,5.733,0,0,0-.074.922,2.314,2.314,0,0,0,.615,1.82,8.7,8.7,0,0,0,5.953,1.377c.394.861.763,1.722,1.119,2.607a22.281,22.281,0,0,0-1.095,3.653A20.822,20.822,0,0,0,31.2,58.89a.369.369,0,0,0,.738,0,20.987,20.987,0,0,1,1.193-6.518c.049.148.111.283.16.43-.025.234-.061.467-.086.7-.135,1.008-.258,2.029-.394,3.038a.37.37,0,0,0,.369.369.378.378,0,0,0,.369-.369c.1-.726.2-1.464.283-2.189.049.16.1.307.148.467-.012.394-.025.775-.025,1.168,0,.849.025,1.7.061,2.546a.378.378,0,0,0,.369.369.37.37,0,0,0,.369-.369l-.037-1.254.258.959c.111.455.824.271.713-.2q-.424-1.679-.959-3.321h0a16.988,16.988,0,0,1,.234-2.091h0c.172.64.32,1.291.443,1.931.172.849.307,1.709.406,2.57a.378.378,0,0,0,.369.369.37.37,0,0,0,.369-.369,34.278,34.278,0,0,0-1.242-5.965c.1-.3.2-.59.32-.873a9.468,9.468,0,0,1,.713-1.353c.258.049.517.074.787.1a19.929,19.929,0,0,0,2.841.025,3.969,3.969,0,0,0,2.386-1.095,4.341,4.341,0,0,0,.64-.812h0c.025-.061.061-.123.1-.209.074-.148.135-.307.2-.467s.111-.307.184-.529h0a3.89,3.89,0,0,0,.135-1,1.663,1.663,0,0,1-.049-.357,3.241,3.241,0,0,0-.025-.344.65.65,0,0,1-.025-.2,1.506,1.506,0,0,1-.025-.234,4.249,4.249,0,0,0,3-1.857,5.482,5.482,0,0,0,.5-1.439v-.135h0A9.372,9.372,0,0,0,46.831,39.274ZM30.916,37a3.914,3.914,0,0,1,5.042-2.841,4.02,4.02,0,0,1,3.124,2.693,3.189,3.189,0,0,1-.787,3.025.343.343,0,0,1-.246.1,3.41,3.41,0,0,0-3.136,2.017c-.5-.664-1.045-1.353-1.537-2.054a1.9,1.9,0,0,1,.037-2.361,2.409,2.409,0,0,1,2.386-1.07.971.971,0,0,1,.738.9.894.894,0,0,1-.627.947c-.025-.012-.074-.012-.086-.037-.246-.43-.541-.566-.824-.406-.258.16-.258.59-.012.959a1.042,1.042,0,0,0,1.476.2,1.8,1.8,0,0,0-.64-3.222A2.975,2.975,0,0,0,32.368,39.3c.012.074.037.148.061.246a.617.617,0,0,1-.689-.406c-.209-.443-.492-.849-.689-1.3A1.233,1.233,0,0,1,30.916,37Zm2.128,13.123c-.221-.529-.455-1.045-.689-1.574h0a3.453,3.453,0,0,0,1.045-.566c.135.32.258.64.394.959h0c0,.025-.012.049-.012.074h0c-.234.43-.443.873-.64,1.316h0A1.6,1.6,0,0,1,33.044,50.121Zm.935-2.656v-.012l.012-.012C33.979,47.44,33.979,47.452,33.979,47.465Zm-8.437-4.956a3.6,3.6,0,0,1-2.62-2.767A3.426,3.426,0,0,1,27.571,36a3.658,3.658,0,0,1,.7.332,8.032,8.032,0,0,1,2.718,2.989c-.615.111-1.218.234-1.845.344-.086-.344-.148-.652-.246-.959a2.519,2.519,0,0,0-2.878-1.746,1.988,1.988,0,0,0-1.414,2.779,1.26,1.26,0,0,0,1.6.713.923.923,0,0,0,.357-1.513.7.7,0,0,0-.627-.148.457.457,0,0,0-.148.713,1.607,1.607,0,0,0,.148.184c-.381.258-.566,0-.7-.258a1.217,1.217,0,0,1,1.033-1.648,1.533,1.533,0,0,1,1.365.418,7.448,7.448,0,0,1,.824,1.205c.172.283.111.467-.209.652a5.267,5.267,0,0,0-2.042,2.2C26.022,42.582,25.849,42.631,25.542,42.508Zm4.637,5.227a16.786,16.786,0,0,1-3.05-.849,1.426,1.426,0,0,1-.984-1.722,8.5,8.5,0,0,1,1.242-3.2,4.1,4.1,0,0,0,.123,2.657,2.469,2.469,0,0,0,2.546,1.66,2.753,2.753,0,0,0,2.324-2.349,1.935,1.935,0,0,0-1.82-2.251,1.271,1.271,0,0,0-1.181.75,1.358,1.358,0,0,0,.123,1.439.515.515,0,1,0,.836-.59.6.6,0,0,1-.086-.529.7.7,0,0,1,.529-.246c.553.012.922.578.849,1.254a2.019,2.019,0,0,1-1.869,1.783,1.941,1.941,0,0,1-1.783-1.7,3,3,0,0,1,2.263-3.456,2.96,2.96,0,0,1,3.542,2.423,4.949,4.949,0,0,1-.32,3.148c-.025.061-.061.123-.086.184a3.016,3.016,0,0,1-.48.713A2.845,2.845,0,0,1,30.179,47.735Zm3.972,5.227h0l-.111-.3h0c.1-.738.2-1.476.283-2.2.074.221.148.43.209.652A12.9,12.9,0,0,0,34.151,52.962Zm.787-3c-.111-.307-.221-.627-.332-.935.135-.234.271-.48.406-.713a2.794,2.794,0,0,0,.59.332A9.425,9.425,0,0,0,34.938,49.961Zm7.182-3.517a2.793,2.793,0,0,1-1.98,1.513,11.488,11.488,0,0,1-3.431.135c-.184-.025-.369-.037-.553-.074a.232.232,0,0,1-.1-.025,2.434,2.434,0,0,1-.676-.271,2.284,2.284,0,0,1-.234-.135,1.6,1.6,0,0,1-.369-.283l-.025-.025c-.246-.271-.234-.566-.037-1.045a5.165,5.165,0,0,0,.209-.615L35,45.362h0c.037-.123.074-.258.111-.418a4.373,4.373,0,0,0,.775.8,3.349,3.349,0,0,0,.627.394,3.412,3.412,0,0,0,2.066.221,2.386,2.386,0,0,0,1.98-1.98,1.684,1.684,0,0,0-1.39-1.832,1.414,1.414,0,0,0-.455.012.487.487,0,0,0-.406.541.209.209,0,0,0,.012.086.451.451,0,0,0,.529.418h.025c.3-.037.627-.061.7.258a1.462,1.462,0,0,1-.061.947,2.043,2.043,0,0,1-2.324.763A1.083,1.083,0,0,1,37,45.509a2.46,2.46,0,0,1-.664-.357,2.119,2.119,0,0,1-.824-1.6,2.294,2.294,0,0,1,1.55-2.361A4.325,4.325,0,0,1,42.047,43,3.305,3.305,0,0,1,42.121,46.444Zm2.251-4.034c-.394.172-.8.3-1.242.467a5.67,5.67,0,0,0-2-2.1.409.409,0,0,1-.135-.258,1.844,1.844,0,0,1,1.316-1.845,1.077,1.077,0,0,1,1.353.849.738.738,0,0,1-.111.418c-.025.037-.221-.074-.332-.061a1.251,1.251,0,0,0-.615.111c-.074.049-.049.381.037.517a.9.9,0,0,0,1.6-.16,1.727,1.727,0,0,0-.886-2.275,2.149,2.149,0,0,0-2.89,1.882c-.012.135-.025.271-.037.43-.344-.111-.664-.209-1.021-.32a3.985,3.985,0,0,0,.763-2.878.644.644,0,0,1,.258-.443,2.454,2.454,0,0,1,2.693-.271,5.261,5.261,0,0,1,2.755,2.964A2.391,2.391,0,0,1,44.371,42.41Z" transform="translate(-19.294 -29.048)" fill="#b9994d"/>
        <path id="Path_13479" data-name="Path 13479" d="M51.728,6.3c0-.615-.049-1.23-.111-1.845A4.154,4.154,0,0,0,47.571.338c-1.205-.123-2.423-.086-3.628-.1-9.47-.086-23.6-.2-33.071-.258C8.794-.031,6.7-.007,4.624.178A4.351,4.351,0,0,0,.541,3.88,9.582,9.582,0,0,0,.283,5.934C.2,11,.135,16.08.061,21.147c0,.3-.037.578-.061.873v6.912c.025.16.074.32.086.492a4.89,4.89,0,0,0,3.247,4.317,11.443,11.443,0,0,0,3.726.713c4,.184,7.994.406,12,.467,5.288.086,10.589.061,15.878.012,2.386-.012,9.458-.111,11.844-.3A4.978,4.978,0,0,0,51.3,31.06a10.955,10.955,0,0,0,.517-3.677Q51.759,16.83,51.728,6.3ZM50.3,30.113a3.958,3.958,0,0,1-3.542,3.259c-.947.123-1.919.16-2.89.246v-.012l-1.119.061H35.014l-1.107.074v.025a3.89,3.89,0,0,1-.394.037c-5.35.037-10.712.148-16.062.074-3.542-.049-7.072-.332-10.614-.553a11.561,11.561,0,0,1-2.4-.43,3.916,3.916,0,0,1-3.148-3.776c-.074-.763-.086-1.537-.1-2.3Q1.1,17.408,1.033,8a21.014,21.014,0,0,1,.148-3.173A3.6,3.6,0,0,1,4.587,1.469a35.622,35.622,0,0,1,4.132-.2c5.35-.1,10.7-.2,16.062-.234,2.681-.012,5.362.074,8.043.135l9.556.049h.394l.713.012V1.211c1.3.086,2.669.1,4,.283a3.094,3.094,0,0,1,2.866,3,19.779,19.779,0,0,1,.16,2.251c.074,6.715.148,13.43.184,20.145A15,15,0,0,1,50.3,30.113Z" transform="translate(0 0)" fill="#b9994d"/>
        <path id="Path_13480" data-name="Path 13480" d="M313.007,115.41h4.1a2.8,2.8,0,0,1,.32.025c.184.025.307.209.271.467a.787.787,0,0,1-.283.455c-.1.074-.246.025-.369.025-2.632-.061-5.264-.111-7.908-.184a3.042,3.042,0,0,1-.738-.1c-.111-.025-.2-.184-.3-.3.1-.086.184-.258.283-.258,1.377-.074,2.743-.123,4.12-.184.172-.012.344,0,.517,0A.074.074,0,0,0,313.007,115.41Z" transform="translate(-270.208 -101.187)" fill="#b9994d"/>
        <path id="Path_13481" data-name="Path 13481" d="M286.775,87.573h5.682c.283-.012.5.1.5.467s-.209.48-.5.467c-1.341-.012-2.669.012-4.009-.012-2.5-.049-5.006-.123-7.5-.2a3.414,3.414,0,0,1-.7-.086,1.15,1.15,0,0,1-.344-.271c.111-.1.209-.258.332-.283a6.881,6.881,0,0,1,1.119-.1c1.808-.012,3.6,0,5.411,0C286.775,87.586,286.775,87.586,286.775,87.573Z" transform="translate(-245.476 -76.806)" fill="#b9994d"/>
        <path id="Path_13482" data-name="Path 13482" d="M268.311,143.347h6.949c.148,0,.344-.025.443.049.148.123.332.344.307.48a.614.614,0,0,1-.443.406c-.627.049-1.254.049-1.882.037q-5.405-.074-10.81-.16a18.1,18.1,0,0,1-1.832-.135c-.16-.012-.3-.184-.443-.3.148-.1.3-.271.455-.283q2.9-.111,5.793-.184c.492-.012.984,0,1.476,0A.24.24,0,0,0,268.311,143.347Z" transform="translate(-228.55 -125.656)" fill="#b9994d"/>
        <path id="Path_13483" data-name="Path 13483" d="M299.224,60.372c-1.07-.061-2.9-.148-4.735-.258-.184-.012-.48.086-.492-.307s.3-.307.48-.307q5.2-.055,10.417-.1c.246,0,.443.111.443.48,0,.406-.221.492-.467.492Z" transform="translate(-257.84 -52.114)" fill="#b9994d"/>
        <path id="Path_13484" data-name="Path 13484" d="M222.327,223.573H231.7c.467-.012.836.1.836.467s-.357.48-.824.467c-2.2-.012-4.4.012-6.617-.012-4.132-.049-8.252-.123-12.385-.2a8.784,8.784,0,0,1-1.144-.086,2,2,0,0,1-.566-.271,1.818,1.818,0,0,1,.553-.283,18.583,18.583,0,0,1,1.857-.1c2.976-.012,5.953,0,8.916,0Z" transform="translate(-185.05 -196.08)" fill="#b9994d"/>
        <path id="Path_13485" data-name="Path 13485" d="M342.62,196.372c-.541-.061-1.451-.148-2.374-.258-.086-.012-.246.086-.246-.307s.148-.307.234-.307c1.734-.037,3.481-.074,5.215-.1.123,0,.221.111.221.48,0,.406-.111.492-.234.492Z" transform="translate(-298.185 -171.387)" fill="#b9994d"/>
      </g>
    </g>
  </g>
</svg>
