<svg xmlns="http://www.w3.org/2000/svg" xmlns:xlink="http://www.w3.org/1999/xlink" width="60" height="60" viewBox="0 0 60 60">
  <defs>
    <clipPath id="clip-path">
      <rect id="Rectangle_7773" data-name="Rectangle 7773" width="60" height="60" transform="translate(1412 136)" fill="#b9994d" stroke="#707070" stroke-width="1" opacity="0.5"/>
    </clipPath>
  </defs>
  <g id="Mask_Group_432" data-name="Mask Group 432" transform="translate(-1412 -136)" clip-path="url(#clip-path)">
    <path id="flower_basket" data-name="flower basket" d="M26.88,52.9H21.095l-.763-.088c-2.529-.281-5.075-.455-7.583-.866a10.141,10.141,0,0,1-8.643-7.822,20.811,20.811,0,0,1-.619-6.908c.04-.7.085-1.4.129-2.108a2.6,2.6,0,0,1-2.181-2,9.523,9.523,0,0,1-.1-1.995.922.922,0,0,0-.26-.773A3.548,3.548,0,0,1,0,27.841a5.312,5.312,0,0,1,3.207-5.105.806.806,0,0,0,.528-.887,28.157,28.157,0,0,1,.821-8.6C6.531,5.888,11.809,1.249,19.312.3c.868-.11,1.74-.2,2.609-.3h3.513c.765.1,1.532.185,2.292.313a14.01,14.01,0,0,1,9.261,5.292A17.042,17.042,0,0,1,40.095,13c.27,1.485.419,2.991.625,4.517-.014-.007.014.019.044.023a3.984,3.984,0,0,1,3.026,5.678.573.573,0,0,0,.077.645,4.334,4.334,0,0,1,.625,3.835c-.174.6-.671,1.147-.7,1.736a9.487,9.487,0,0,0,.5,1.872A3.072,3.072,0,0,1,41.7,35.05c-.182.037-.362.079-.635.138-.051,1.719-.106,3.436-.152,5.153a21.932,21.932,0,0,1-.709,5.874,8.16,8.16,0,0,1-5,5.718,15.408,15.408,0,0,1-4.667.762C29.317,52.757,28.1,52.83,26.88,52.9ZM35.71,15.92a5.982,5.982,0,0,1,2.9,1.659.694.694,0,0,0,.572.077c.1-.029.211-.277.2-.422A25.346,25.346,0,0,0,38.124,10.2,12.574,12.574,0,0,0,28.369,1.43a27.8,27.8,0,0,0-9.6-.307A14.35,14.35,0,0,0,6.7,10.294,29.233,29.233,0,0,0,4.669,19c-.1,1.058-.156,2.121-.233,3.217l1.529-.163a4.762,4.762,0,0,1,2-4.956,2.232,2.232,0,0,0,1.024-1.537A14.167,14.167,0,0,1,17.647,5.168,12.8,12.8,0,0,1,28.278,5.05C32.907,7.114,35.326,10.8,35.71,15.92ZM25.558,44.8l-.1.118c.339.493.661,1,1.024,1.478.479.632.419.877-.337,1.145-.647.229-1.292.47-1.945.683a4.73,4.73,0,0,0-1.847.791,1.266,1.266,0,0,1-1.029.074,15.951,15.951,0,0,1-2.081-.882c-.793-.39-.784-.506-.315-1.236.455-.708.851-1.452,1.273-2.181l-.128-.088c-.877.468-1.748.95-2.634,1.4-1.256.638-2.15.273-2.532-1.077-.136-.484-.38-.57-.824-.607-2.5-.209-5-.453-7.5-.689-.485-.045-.967-.109-1.5-.171.955,3.294,2.792,5.692,6.034,6.855a22.464,22.464,0,0,0,5.3,1.063,78.283,78.283,0,0,0,16.236-.143,6.637,6.637,0,0,0,5.867-4.241c.306-.742.488-1.536.719-2.309a.527.527,0,0,0,.015-.209H31.049c-.015.09-.03.171-.044.252-.313,1.832-.889,2.131-2.57,1.336Zm14.31-9.607H4.427v4.635l9.747.576c0-.771-.026-1.44.006-2.1.051-1.054.692-1.426,1.6-.894.89.519,1.752,1.09,2.593,1.686.682.484,1.313,1.037,2.007,1.592A3.609,3.609,0,0,1,22.81,38.87,2.7,2.7,0,0,1,25.5,40.042c1.278-.917,2.506-1.829,3.768-2.694,1.052-.722,1.831-.353,1.971.917.08.729.094,1.466.145,2.329l8.2-.561C39.679,38.365,39.771,36.812,39.868,35.192ZM32.524,16.719l1.933-.93c-.055-.544-.073-1.149-.18-1.737A11.149,11.149,0,0,0,22.241,5.01a12.828,12.828,0,0,0-9.125,4.651,20.151,20.151,0,0,0-3.644,6.664,3.234,3.234,0,0,1,.657-.094c.579.047.833-.225,1.087-.745a4.532,4.532,0,0,1,7.078-1.6.437.437,0,0,0,.131.054,6.885,6.885,0,0,1,3.032-2.081,3.9,3.9,0,0,1,4.491,1.282.677.677,0,0,0,.514.191,6.715,6.715,0,0,1,3.626.825A5.561,5.561,0,0,1,32.524,16.719ZM2.108,31.143a7.894,7.894,0,0,0,.007,1.04A2.007,2.007,0,0,0,4.009,34.1a8.083,8.083,0,0,0,1.182.087c2.462.01,4.923.025,7.385.008q13.84-.093,27.68-.209a6.069,6.069,0,0,0,1.127-.113,1.776,1.776,0,0,0,1.507-1.244,3.623,3.623,0,0,0-.163-2.167c-2.528,1.846-6.017,1.387-7.352-.6a4.463,4.463,0,0,1-2.707,1.269A24.4,24.4,0,0,1,29.48,31.1a3.512,3.512,0,0,1-3.332-1.927,4.175,4.175,0,0,1-2.728,1.606,9.709,9.709,0,0,1-6.934-1.627c-.81,2.9-6.271,4.662-9.01,1.214A5.282,5.282,0,0,1,2.108,31.143Zm25.1-4.522c-.081.3-.136.537-.207.765s-.142.46-.234.682c-.313.749-.231,1.083.482,1.517a3.234,3.234,0,0,0,1.131.471,12.826,12.826,0,0,0,4.465-.073,3.178,3.178,0,0,0,2.222-1.7,3.674,3.674,0,0,0-.072-3.834,4.834,4.834,0,0,0-5.578-2.026,2.58,2.58,0,0,0-1.737,2.65,2.422,2.422,0,0,0,1.873,2.258,2.3,2.3,0,0,0,2.606-.853,1.624,1.624,0,0,0,.07-1.057c-.087-.357-.457-.337-.785-.291a.509.509,0,0,1-.621-.471.56.56,0,0,1,.439-.707,1.342,1.342,0,0,1,.508-.021,1.888,1.888,0,0,1,1.552,2.054A2.664,2.664,0,0,1,31.1,28.2,3.722,3.722,0,0,1,27.205,26.621Zm-10.73-1.7a4.755,4.755,0,0,1-3.635-2.8c-.051-.109-.343-.174-.507-.149A6.385,6.385,0,0,0,7.6,27.45a3.44,3.44,0,0,0,1.78,3.171,4.82,4.82,0,0,0,5.765-1.178,2.09,2.09,0,0,0,.1-2.59,3.646,3.646,0,0,0-2.818-1.693,2.025,2.025,0,0,0-1.758.7,1.205,1.205,0,0,0-.183,1.393.83.83,0,0,0,.861.533.721.721,0,0,0,.661-.676.652.652,0,1,1,1.24.391,1.976,1.976,0,0,1-1.781,1.274,1.829,1.829,0,0,1-1.726-1.244,2.467,2.467,0,0,1,2.008-3.144,4.052,4.052,0,0,1,3.54,1.163c.247.22.46.479.7.733C16.153,25.823,16.3,25.4,16.476,24.922ZM27,23.3a3.817,3.817,0,0,1,3.514-2.262.4.4,0,0,0,.27-.114,3.557,3.557,0,0,0,.877-3.391,4.505,4.505,0,0,0-3.5-3.02A4.378,4.378,0,0,0,22.512,17.7a1.655,1.655,0,0,0,.141.957c.215.5.54.959.771,1.456a.7.7,0,0,0,.774.452c-.03-.112-.056-.191-.074-.273A3.34,3.34,0,0,1,28,16.424a2.016,2.016,0,0,1,.714,3.61,1.174,1.174,0,0,1-1.654-.225c-.278-.4-.27-.894.017-1.069.315-.191.649-.029.926.449.014.023.059.028.091.04a1.007,1.007,0,0,0,.705-1.063,1.078,1.078,0,0,0-.822-1,2.682,2.682,0,0,0-2.671,1.2A2.146,2.146,0,0,0,25.267,21C25.831,21.788,26.43,22.553,27,23.3Zm-8.429-.062a9.567,9.567,0,0,0-1.386,3.588,1.589,1.589,0,0,0,1.1,1.934,17.786,17.786,0,0,0,3.411.953,3.191,3.191,0,0,0,3.692-1.98,5.616,5.616,0,0,0,.353-3.533,3.316,3.316,0,0,0-3.967-2.715,3.356,3.356,0,0,0-2.533,3.871,2.16,2.16,0,0,0,2,1.9,2.25,2.25,0,0,0,2.1-1.992c.085-.749-.331-1.391-.953-1.4a.808.808,0,0,0-.6.271.673.673,0,0,0,.091.591.545.545,0,0,1-.1.851c-.336.259-.621.116-.833-.189a1.522,1.522,0,0,1-.136-1.613,1.432,1.432,0,0,1,1.32-.843,2.16,2.16,0,0,1,2.039,2.515,3.074,3.074,0,0,1-2.6,2.632,2.766,2.766,0,0,1-2.849-1.864A4.519,4.519,0,0,1,18.567,23.242ZM36.6,25.264c.034.3.08.588.1.875a1.891,1.891,0,0,0,1.464,1.811,1.975,1.975,0,0,0,2.34-1.284,1.71,1.71,0,0,0-.08-.581,1.744,1.744,0,0,1-.457.076c-.245-.026-.559-.032-.7-.182-.1-.1-.015-.493.114-.653a1.2,1.2,0,0,1,1.379-.236A1.384,1.384,0,0,1,41.5,26.5a2.713,2.713,0,0,1-2.43,2.234,2.9,2.9,0,0,1-2.484-1.083c-.084.244-.139.419-.207.591s-.142.351-.226.519c-.337.679-.321.78.3,1.24a3.5,3.5,0,0,0,.663.393,4.652,4.652,0,0,0,6.215-3.138,3.228,3.228,0,0,0-2.153-3.937c-.369-.121-.76-.18-1.134-.267A4.772,4.772,0,0,1,36.6,25.264Zm-14-4.958a9.129,9.129,0,0,0-3.044-3.35,4.614,4.614,0,0,0-.791-.375,3.838,3.838,0,0,0-5.2,4.188,4.052,4.052,0,0,0,2.937,3.1.491.491,0,0,0,.731-.264,5.873,5.873,0,0,1,2.285-2.464c.366-.2.435-.412.24-.726a8.677,8.677,0,0,0-.922-1.343,1.716,1.716,0,0,0-1.525-.467,1.358,1.358,0,0,0-1.158,1.84c.153.293.358.574.782.287-.062-.079-.117-.138-.161-.207a.5.5,0,0,1,.164-.792.8.8,0,0,1,.7.165,1.034,1.034,0,0,1-.4,1.689,1.426,1.426,0,0,1-1.791-.8,2.23,2.23,0,0,1,1.587-3.119,2.819,2.819,0,0,1,3.226,1.956c.117.335.182.689.28,1.069C21.231,20.562,21.914,20.434,22.6,20.306ZM6.9,29.286a5.168,5.168,0,0,1-.219-2.8.452.452,0,0,0-.136-.35,1.93,1.93,0,0,0-1.9-.517,1.755,1.755,0,0,0-1.36,1.342,1.923,1.923,0,0,0,.2,1.055c.051.12.377.124.579.18.022-.176.109-.375.055-.523a.526.526,0,0,1,.343-.741c.369-.161.59.033.722.364a1.167,1.167,0,0,1-.2,1.212,1.179,1.179,0,0,1-1.183.471,1.694,1.694,0,0,1-1.27-2.092,2.614,2.614,0,0,1,4.049-1.616l.383.264c.194-.358.371-.686.521-.963a7.557,7.557,0,0,1-1.036-1.38c-.253-.569-.563-.6-1.073-.463a5.5,5.5,0,0,0-4.259,3.79,2.954,2.954,0,0,0,3.324,3.952A6.144,6.144,0,0,0,6.9,29.286Zm26.243-7.8c.017-.183.029-.333.045-.484A2.4,2.4,0,0,1,36.426,18.9a1.921,1.921,0,0,1,.989,2.543,1.009,1.009,0,0,1-1.792.174c-.092-.161-.121-.528-.036-.585a1.435,1.435,0,0,1,.692-.128c.129-.007.353.11.376.072a.782.782,0,0,0,.129-.464,1.206,1.206,0,0,0-1.515-.949A2.073,2.073,0,0,0,33.8,21.623a.426.426,0,0,0,.15.292A6.315,6.315,0,0,1,36.2,24.271c.5-.183.959-.322,1.4-.519a2.653,2.653,0,0,0,1.66-3.346,5.926,5.926,0,0,0-3.093-3.317,2.747,2.747,0,0,0-3.017.309.729.729,0,0,0-.291.5A4.47,4.47,0,0,1,32,21.126C32.4,21.254,32.758,21.365,33.142,21.487Zm-17.948,16.7a17.689,17.689,0,0,0,.62,6.666c.165.537.49.712.876.5,1.175-.636,2.332-1.307,3.353-1.883,0-.773.011-1.411-.008-2.047a.564.564,0,0,0-.179-.408C18.335,40.075,16.8,39.155,15.195,38.182ZM25.275,43.59l4,1.664c.276.114.417.014.478-.266a28.966,28.966,0,0,0,.565-6.5c-.006-.448-.176-.533-.546-.3-1.311.811-2.617,1.63-3.965,2.471A3.042,3.042,0,0,1,25.275,43.59ZM4.491,40.481c.109.671.24,1.361.326,2.057.051.409.238.514.638.529,2.167.083,4.334.193,6.5.31.851.045,1.7.134,2.576.2-.109-.822-.211-1.586-.307-2.306Zm26.641,3.488a.591.591,0,0,0,.161.047q3.938-.269,7.877-.55c.1-.008.28-.131.288-.214.073-.778.116-1.559.16-2.234H31.371C31.29,42.026,31.211,43,31.133,43.969Zm-18.558-22.6c-.04-.4-.09-.756-.109-1.116a1.511,1.511,0,0,0-1-1.409,1.544,1.544,0,0,0-2.075.946.933.933,0,0,0,.3.729c.241.2.4-.062.53-.288.18-.307.459-.269.709-.09a.4.4,0,0,1,.05.664,1.326,1.326,0,0,1-1.34.475,1.236,1.236,0,0,1-.939-.933,1.974,1.974,0,0,1,1.687-2.384,2.368,2.368,0,0,1,2.192.931c.182-.453.351-.876.55-1.369-.484-.117-.941-.259-1.409-.335A4.4,4.4,0,0,0,7.2,19.324a3.359,3.359,0,0,0,1.025,4.25C9.434,22.39,10.694,21.306,12.575,21.372Zm12.339-7.727A2.2,2.2,0,0,0,23.3,12.7c-1.825-.225-3.108.8-4.381,1.872a3.309,3.309,0,0,0,.563,1.011c.734.6,1.539,1.109,2.307,1.649A4.836,4.836,0,0,1,24.913,13.646Zm.006,28.062a1.828,1.828,0,0,0-1.413-1.937A2.316,2.316,0,0,0,20.8,42.3a1.76,1.76,0,0,0,.607,1.015,2.168,2.168,0,0,0,2.389.069A1.949,1.949,0,0,0,24.919,41.707Zm-5.259,5.748,1.763.709a.55.55,0,0,0,.758-.241c.546-1.057,1.063-2.128,1.659-3.331A3.543,3.543,0,0,1,21,44.26C20.555,45.322,20.125,46.346,19.659,47.456ZM17.99,15.164a2.9,2.9,0,0,0-2.471-1.346,4.6,4.6,0,0,0-3.868,2.324c.613.225,1.187.444,1.771.638a.4.4,0,0,0,.344-.077A4.886,4.886,0,0,1,17.99,15.164Zm22.492,6.742c.45.1.843.163,1.211.289a10.926,10.926,0,0,1,1.066.49,2.933,2.933,0,0,0-.315-3.19,3.062,3.062,0,0,0-3.065-1.028A4.556,4.556,0,0,1,40.482,21.905ZM24.753,44.861c-.353.846-.679,1.625-1.047,2.508.7-.251,1.316-.471,1.964-.7C25.354,46.044,25.069,45.482,24.753,44.861Z" transform="translate(1419.998 140)" fill="#b9994d"/>
  </g>
</svg>
