<svg xmlns="http://www.w3.org/2000/svg" xmlns:xlink="http://www.w3.org/1999/xlink" width="60" height="60" viewBox="0 0 60 60">
  <defs>
    <clipPath id="clip-path">
      <rect id="Rectangle_7777" data-name="Rectangle 7777" width="60" height="60" transform="translate(1010 132)" fill="#b9994d" stroke="#707070" stroke-width="1" opacity="0.5"/>
    </clipPath>
  </defs>
  <g id="Mask_Group_434" data-name="Mask Group 434" transform="translate(-1010 -132)" clip-path="url(#clip-path)">
    <path id="دست_گل" data-name="دست گل" d="M16.09,55a22.615,22.615,0,0,1-2.219-.564c-1.3-.468-2.4-1.216-2.55-2.737a5.062,5.062,0,0,1,.208-1.848c.509-1.784,1.088-3.549,1.638-5.319-.069.023-.211.066-.352.116a1.975,1.975,0,0,1-2.76-1.106,15.229,15.229,0,0,1-.9-3.126A17.254,17.254,0,0,1,9,34.7a14.262,14.262,0,0,1,.52-1.823A12.617,12.617,0,0,1,5.659,23.9c0-.765-.432-1.121-1.18-.907a14.562,14.562,0,0,0-1.383.573A2.061,2.061,0,0,1,.468,23.1a2.3,2.3,0,0,1,.095-2.928A14.762,14.762,0,0,1,2.051,18.8a4.345,4.345,0,0,1,1.391-6.794C2.5,10.288,2.17,8.529,3.406,6.819A4.383,4.383,0,0,1,8.289,5.2C9.409,3.124,11.063,2.11,13.445,2.6a4.572,4.572,0,0,1,7.169-1.452,3.953,3.953,0,0,1,4.4-.616A4.58,4.58,0,0,1,26.9,2.164a.68.68,0,0,0,.522.283,4.865,4.865,0,0,1,5.357,3.182c.01.03.044.053.086.1a3.944,3.944,0,0,1,3.826,1.754,3.959,3.959,0,0,1,.6,3.619.7.7,0,0,0,.1.586c2.059,1.946,2.361,4.006.891,6.419.128.086.255.175.385.263a3.211,3.211,0,0,1,1.178,3.974,3.146,3.146,0,0,1-3.769,1.689c-.448-.121-.891-.253-1.263-.359-.3,1.457-.5,2.913-.91,4.308a18.161,18.161,0,0,1-2.741,5.784.505.505,0,0,0-.052.379,15.257,15.257,0,0,1,.017,7.072,4.05,4.05,0,0,1-.317.907,1.9,1.9,0,0,1-2.252,1.118c-.363-.07-.719-.181-1.167-.294.357.5.675.917.97,1.352a8.512,8.512,0,0,1,1.715,5.469,5.1,5.1,0,0,1-5.264,4.983c-1.52.02-3.04,0-4.558.04-.6.014-1.2.133-1.8.2Q17.27,55,16.09,55ZM33.93,23.7c-.037-.05-.075-.1-.111-.149a7.1,7.1,0,0,0-.9.5,4.675,4.675,0,0,0-.722.718,2.482,2.482,0,0,1-3.136.764,2.911,2.911,0,0,0-3.519.574,2.531,2.531,0,0,1-3.486.109c-.428-.293-.834-.619-1.264-.906a1.924,1.924,0,0,0-2.082-.123c-.442.232-.867.5-1.3.748-1.375.786-2.809.9-4.018-.689-.9-1.18-1.547-1.279-2.892-.649-.178.083-.353.174-.528.264a3.321,3.321,0,0,1-3.347.189,2.547,2.547,0,0,0,.023.321,13.318,13.318,0,0,0,4.008,6.9,1.381,1.381,0,0,0,.413.222,12.1,12.1,0,0,1,1.427.588,17.008,17.008,0,0,1,4,3.222,2.36,2.36,0,0,1,.268.521,4.5,4.5,0,0,1,3.2-1.913,3.514,3.514,0,0,1,3.22,1c1.236-1.006,2.39-2.024,3.627-2.928,1.053-.769,2.209-1.339,3.45-.317A26.107,26.107,0,0,0,33.93,23.7Zm-8.575-5.2A5.526,5.526,0,0,1,20.5,22.183a4.748,4.748,0,0,1-5.172-2.823c-2.058,2.5-6.081,2.212-8.091-.057a3.532,3.532,0,0,1-4.2.268.633.633,0,0,0-.385-.116A2.979,2.979,0,0,0,.966,21.593a1.03,1.03,0,0,0,1.46,1.127c.339-.108.664-.263.993-.4,1.662-.7,2.391-.452,3.241,1.108l.1.188a1.234,1.234,0,0,0,1.6.715,11.051,11.051,0,0,0,1.454-.538c2.014-.855,2.7-.72,4.232.855l.112.116a1.7,1.7,0,0,0,2.358.412c.561-.274,1.094-.607,1.648-.9a3.023,3.023,0,0,1,3.252.159c.4.264.807.532,1.207.8a1.734,1.734,0,0,0,2.144-.046c.32-.23.64-.458.964-.682a2.686,2.686,0,0,1,2.354-.382c.448.123.888.27,1.332.409a1.8,1.8,0,0,0,1.93-.435c.154-.149.319-.29.464-.448a3.05,3.05,0,0,1,3.127-.914,10.421,10.421,0,0,0,2.107.334,1.893,1.893,0,0,0,1.807-2.2,1.765,1.765,0,0,0-2.268-1.583,3.789,3.789,0,0,1-2.555-.079C31.831,22.656,26.636,22.682,25.355,18.5ZM17.207,41.968l-.135-.086c-.86.6-1.724,1.2-2.57,1.814a.821.821,0,0,0-.247.449c-.509,2.047-1.033,4.089-1.5,6.145a2.18,2.18,0,0,0,1.513,2.893,8.442,8.442,0,0,0,3.786.578c1.894-.076,3.787-.159,5.682-.234.571-.023,1.147.006,1.715-.04A3.45,3.45,0,0,0,28.127,52a4.686,4.686,0,0,0,.8-3.262,8.142,8.142,0,0,0-1.571-3.886c-.619-.877-1.269-1.734-1.958-2.556a6.039,6.039,0,0,0-1.051-.812l-.118.123a4.443,4.443,0,0,0,.235.449c.956,1.447,1.926,2.883,2.863,4.341a1,1,0,0,1,.168.8.954.954,0,0,1-.772.261c-.633-.047-1.259-.187-1.889-.29a10.472,10.472,0,0,1-.238,1.181.911.911,0,0,1-1.491.5,3.494,3.494,0,0,1-.71-.722c-.428-.557-.825-1.138-1.267-1.752-.555.986-1.075,1.922-1.607,2.849-.379.66-.972.676-1.28-.016a3.647,3.647,0,0,1-.212-1.345c-.022-.687-.154-.83-.8-.606-.811.28-1.6.627-2.414.887a.822.822,0,0,1-.735-.138.848.848,0,0,1,.047-.755c.451-.751,1-1.441,1.441-2.2C16.156,44.054,16.666,43,17.207,41.968Zm.044-1.692a2.514,2.514,0,0,1-.817-2.41.617.617,0,0,0-.268-.676c-.874-.682-1.718-1.406-2.625-2.042A16.91,16.91,0,0,0,11.358,33.9c-.583-.29-.94-.092-1.15.528a2.938,2.938,0,0,0-.109.415,15.386,15.386,0,0,0,.623,7.777c.439,1.28,1.177,1.537,2.3.759C14.432,42.4,15.792,41.35,17.251,40.276Zm1.7-26.9a5.464,5.464,0,0,0-2.589,2.866,3.485,3.485,0,0,0,1.8,4.42,4.832,4.832,0,0,0,6.717-3.545,3.9,3.9,0,0,0-1.623-3.987,2.256,2.256,0,0,0-2.193-.254,4.131,4.131,0,0,0-2.045,4.433,1.984,1.984,0,0,0,.232.481,1.558,1.558,0,0,0,1.859.554,1.516,1.516,0,0,0,1.01-1.593c-.033-.182-.212-.339-.324-.507a1.858,1.858,0,0,1-.349.243c-.194.079-.452.217-.594.148a.627.627,0,0,1-.2-.56,1.053,1.053,0,0,1,.946-.827,1.075,1.075,0,0,1,1.24.637,2.9,2.9,0,0,1,.151,1.5,2.426,2.426,0,0,1-2.524,1.824A2.512,2.512,0,0,1,18.131,17,6.03,6.03,0,0,1,18.95,13.376ZM23.5,39.643a14.253,14.253,0,0,0,4.859,2.385c.92.2,1.35-.022,1.607-.936a13.538,13.538,0,0,0,.313-6.312c-.313-1.6-1.117-1.986-2.471-1.1s-2.58,1.91-3.852,2.892a.508.508,0,0,0-.164.433A3.4,3.4,0,0,1,23.5,39.643ZM25.73,15.821c.271-.3.494-.578.751-.821a4.224,4.224,0,0,1,4.669-.84,2.374,2.374,0,0,1,1.25,2.566,2.264,2.264,0,0,1-1.983,1.9,1.575,1.575,0,0,1-1.638-1.045,1.419,1.419,0,0,1,.451-1.731c.316-.218.666-.354.957,0,.277.339.168.644-.166.92a.437.437,0,0,0,.21.8,1.036,1.036,0,0,0,1.086-.423,1.511,1.511,0,0,0-.568-2.341,3.416,3.416,0,0,0-4.369,2.024A3.159,3.159,0,0,0,30.2,20.564a5.242,5.242,0,0,0,3.766-6.144,2.886,2.886,0,0,0-2.733-2.52,5.709,5.709,0,0,0-5.28,2.586A1.282,1.282,0,0,0,25.73,15.821Zm-10.477.243a.737.737,0,0,0-.129-1.2,21.383,21.383,0,0,0-2.2-1.593,4.152,4.152,0,0,0-2.866-.395,3.775,3.775,0,0,0-3.126,3.179,3.658,3.658,0,0,0,2.388,3.747,5.159,5.159,0,0,0,1.292.336,4.57,4.57,0,0,0,3.4-.844,1.848,1.848,0,0,0,.687-2.359,3.416,3.416,0,0,0-3.892-1.362,1.376,1.376,0,0,0-.852,1.561c.09.443.327.782.812.784s.675-.321.7-.778.334-.56.718-.511a.483.483,0,0,1,.436.7,2.611,2.611,0,0,1-.558.949,1.655,1.655,0,0,1-2.077.178,1.96,1.96,0,0,1-.7-2.242,2.738,2.738,0,0,1,3.034-1.681A4.821,4.821,0,0,1,15.253,16.063ZM6.886,13.629a8.232,8.232,0,0,1,.874-.8,2.628,2.628,0,0,0,1.059-1.62,2.535,2.535,0,0,0-.377-2.3,1.59,1.59,0,0,0-1.926-.488,1.65,1.65,0,0,0-.71,1.813c.062.191.286.329.435.489a1.851,1.851,0,0,1,.281-.387,1.269,1.269,0,0,1,.619-.36c.116-.006.34.326.357.521a.977.977,0,0,1-.683,1.039,1.265,1.265,0,0,1-1.472-.482,2.285,2.285,0,0,1-.118-2.532A2.02,2.02,0,0,1,7.29,7.36a2.726,2.726,0,0,1,2.3,3.416c-.085.39-.231.768-.365,1.2l.957-.238a5.163,5.163,0,0,1,1.2-3.264A7.086,7.086,0,0,0,8.108,6.194a3.4,3.4,0,0,0-4.58,3.46,3.34,3.34,0,0,0,1.105,2.374C5.331,12.622,6.13,13.1,6.886,13.629Zm8.495-2.514a1.09,1.09,0,0,0,1.391.419,1.076,1.076,0,0,0,.594-.642c.119-.53-.32-.792-.726-1A2.936,2.936,0,0,0,12.646,12a7.161,7.161,0,0,1,3.374,2.613,7.9,7.9,0,0,1,4-2.721,4.486,4.486,0,0,0-4.036-4.38,4.849,4.849,0,0,0-5.1,4.168l1.107.121c.055-.21.093-.383.145-.554a3.424,3.424,0,0,1,5.068-1.871,1.737,1.737,0,0,1,.89,1.715,1.423,1.423,0,0,1-1.214,1.21,1.884,1.884,0,0,1-2.034-.451.967.967,0,0,1,.273-1.544c.166-.077.412.019.621.034-.055.21-.1.422-.169.627C15.555,11.021,15.466,11.052,15.381,11.115Zm9.937,3.1A6.188,6.188,0,0,1,29,11.066a4.006,4.006,0,0,0-3.01-3.218,4.153,4.153,0,0,0-4.327,1.471,1.793,1.793,0,0,0-.435,2.322l.916-.07a4.29,4.29,0,0,1,2-2.289,2.057,2.057,0,0,1,2.431.324,1.359,1.359,0,0,1,.281,1.534,1.278,1.278,0,0,1-1.392.68.732.732,0,0,1-.52-.347.719.719,0,0,1,.172-.616c.125-.122.4-.093.61-.125.136-.022.274-.032.412-.047-.019-.149.013-.392-.063-.433a1.855,1.855,0,0,0-.946-.347,3.306,3.306,0,0,0-2.407,1.787A4.488,4.488,0,0,1,25.318,14.215ZM24.14,6.762a4.574,4.574,0,0,0-3.414-3.291A4.449,4.449,0,0,0,16.272,5.1c-.244.284-.148.91-.092,1.363.014.119.468.184.722.274a3.534,3.534,0,0,1,2.16-2.276,1.993,1.993,0,0,1,2.661,1.108,1.25,1.25,0,0,1-.243,1.35,1.3,1.3,0,0,1-1.316.4c-.505-.131-.753-.491-.627-.891s.488-.512,1.01-.333c.122.042.352.024.4-.053.069-.1.073-.369,0-.425a1.936,1.936,0,0,0-.847-.461A2.535,2.535,0,0,0,17.676,6.9a15.016,15.016,0,0,1,1.58,1.115,15.442,15.442,0,0,1,1.287,1.474C21.585,7.914,22.017,7.586,24.14,6.762ZM30,10.335a10.651,10.651,0,0,0,1.009-1.015,3.445,3.445,0,0,0,.71-2.826,3.746,3.746,0,0,0-6.158-2.118c-.8.619-.8.619-.462,1.528a.839.839,0,0,1,.065.2c.039.6.395.761.953.673.063-.23.113-.474.2-.706A2.232,2.232,0,0,1,28.1,4.546a1.847,1.847,0,0,1,2.18,1.95,1.173,1.173,0,0,1-1.31,1.115.872.872,0,0,1-.8-.752c-.029-.245.073-.676.23-.738a2.651,2.651,0,0,1,.982,0,.768.768,0,0,0-.835-.759,1.874,1.874,0,0,0-1.7,1.7A5.682,5.682,0,0,1,30,10.335ZM20.47,35.913c-.016-.044-.03-.09-.046-.135a12.882,12.882,0,0,0-2.137.748,1.91,1.91,0,0,0-.376,3.1,3.083,3.083,0,0,0,3.473.557,2.357,2.357,0,0,0,1.4-2.618A2.121,2.121,0,0,0,20.47,35.913Zm-1.3,11.8a26.52,26.52,0,0,0,3-6.705,4.283,4.283,0,0,1-3.769.122c-.746,1.843-1.477,3.65-2.189,5.406C18.5,45.966,18.693,46.035,19.17,47.708ZM3.875,12.574a3.652,3.652,0,0,0-1.968,3.37,3.223,3.223,0,0,0,2,2.988,2.236,2.236,0,0,0,2.47-.266.486.486,0,0,0,.169-.627,8.9,8.9,0,0,1-.385-1.982,8.249,8.249,0,0,1,.248-1.669,1.465,1.465,0,0,0-2.235.667,3.963,3.963,0,0,0-.344,1.16.62.62,0,0,0,.121.448,1.422,1.422,0,0,0,.415.263,1.481,1.481,0,0,1,.033-.41c.079-.211.156-.485.321-.578.116-.065.455.072.558.215A1.026,1.026,0,0,1,4.5,17.738,1.356,1.356,0,0,1,3.1,16.65a2.564,2.564,0,0,1,.96-2.572c.224-.212.485-.387.666-.53C4.441,13.226,4.183,12.929,3.875,12.574ZM33.081,8.252c-.522.911-1.012,1.764-1.507,2.629a3.95,3.95,0,0,1,2.9,1.886c1.642-1.151,2.235-2.595,1.709-4.067a3.448,3.448,0,0,0-3.163-2.138c.016.352.032.7.047,1.072.192.047.366.082.535.132a2.16,2.16,0,0,1,1.379,1.029,1.679,1.679,0,0,1-.87,2.352.617.617,0,0,1-.875-.443.607.607,0,0,1,.548-.8c.475-.09.59-.284.412-.735A1.6,1.6,0,0,0,33.081,8.252Zm1.808,5.6a7.286,7.286,0,0,1-.317,4.3A2.743,2.743,0,0,0,38,16.37a4.069,4.069,0,0,0-1.16-4.189c-.192.254-.385.507-.574.758,1,1.1,1.158,1.986.508,3.091a.682.682,0,0,1-.484.324.65.65,0,0,1-.482-.339.686.686,0,0,1,.123-.567,1.266,1.266,0,0,0-.276-2.008ZM9.8,5.848c.1-.165.191-.319.291-.464a2.363,2.363,0,0,1,2.833-.891,1.05,1.05,0,0,1,.73,1.023,1.748,1.748,0,0,1-.509.983.583.583,0,0,1-.927-.1c-.178-.336-.006-.643.458-.83.037-.014.055-.079.08-.118a1.545,1.545,0,0,0-2.3.779l1.518,1.629a5.913,5.913,0,0,1,2.73-1.243.532.532,0,0,0,.3-.392,2.307,2.307,0,0,0-.977-2.141C12.12,2.6,9.649,4.025,8.973,5.441ZM21.719,45.31c.545.673,1.112,1.373,1.781,2.2.055-.4.092-.643.119-.881.075-.65.323-.847.962-.742.363.06.723.132,1.079.2-.815-1.567-1.615-3.1-2.408-4.63C22.748,42.718,22.243,43.991,21.719,45.31Zm4.2-42.43A2.97,2.97,0,0,0,23.475,1.15,3.354,3.354,0,0,0,20.5,2.459a6.011,6.011,0,0,1,3.75,2.009C24.8,3.94,25.34,3.428,25.917,2.88Zm-5.99-.751a3.823,3.823,0,0,0-5.558.5l1.607,1.648a5.489,5.489,0,0,1,3.439-1.782C19.582,2.469,19.727,2.277,19.926,2.129Z" transform="translate(1020.013 135.004)" fill="#b9994d"/>
  </g>
</svg>
