<svg xmlns="http://www.w3.org/2000/svg" width="401.989" height="258.737" viewBox="0 0 401.989 258.737"><path data-name="Path 6671" d="M396.506 123.974h-3.183s-7.781-3.537-13.087-3.537-18.923 2.476-18.923 16.624c0 14.325 18.923 18.57 27.412 25.821s5.836 21.93-9.02 21.93c-15.033 0-17.155-14.148-17.155-14.148h-1.945s2.122 10.788 2.3 13.441c0 0 7.958 5.129 15.209 5.129s23.875-3.891 23.875-19.1-15.209-20.161-22.46-24.052-10.611-7.428-10.611-12.38 5.306-9.727 13.795-9.727c8.312 0 13.971 10.788 13.971 10.788h2.122c-.354 0-1.945-6.544-2.3-10.788zm-66.674 40.853h-25.467l-4.245 10.081c-3.006 7.251-2.3 9.2 6.013 9.9l-.177 2.122h-20.691v-2.3c7.074-1.238 7.958-4.952 10.788-11.319l23.168-53.758h1.592l22.637 54.294c2.476 5.836 4.244 10.434 11.319 10.788v2.118h-25.821v-2.3c8.312-.354 7.251-4.245 4.6-10.788zm-1.415-3.537l-11.142-26.528-11.317 26.529zm-185.166-39.437h26.528s21.046.354 23.522 15.917-12.38 18.923-12.38 18.923c20.692 15.209 34.133 39.085 62.783 39.085v1.945s-23.875.884-36.255-6.19-31.126-32.364-36.786-32.364h-8.665v21.93s0 3.537 3.537 3.537h5.659v2.3h-28.12v-2.3s9.2.531 9.2-9.55V132.11s.884-8.312-9.02-8.312zm-56.416 0h45.982a115.92 115.92 0 003.006 12.733h-3.006s0-7.6-5.306-7.6h-21.045v22.278h19.984c3.36-.177 3.007-2.122 3.007-2.122h.707v8.311h-.706s.354-2.122-3.714-2.122h-19.278v25.29s-.177 3.36 3.714 3.36h14.678s6.19.354 10.788-8.489h3.36s-4.952 7.782-5.836 13.087H86.658v-1.945h3.36s6.72 0 6.72-6.72v-44.566s.884-9.55-10.081-9.55zm74.986 4.775l7.428-.177c19.277-.531 19.454 28.12.707 28.12h-8.135z" fill="#1c0c07" fill-rule="evenodd"/><path data-name="Rectangle 7214" fill="#1c0c07" d="M0 111.241h143.252v1.945H0z"/><path data-name="Rectangle 7215" fill="#1c0c07" d="M255.023 195.6h146.789v1.945H255.023z"/><path data-name="Rectangle 7216" fill="#1c0c07" d="M224.074 111.241h177.738v1.945H224.074z"/><path data-name="Rectangle 7217" fill="#1c0c07" d="M0 195.6h198.607v1.945H0z"/><path data-name="Path 6672" d="M224.074 186.757v-2.3c7.958 0 9.373-1.415 9.373-9.727v-42.444c0-6.72-1.945-8.489-9.373-8.489v-1.945h26.351c9.727 0 17.155 1.061 22.107 3.36a24.39 24.39 0 0112.2 10.965 34.863 34.863 0 014.6 17.862c0 9.02-2.653 16.624-8.135 22.637q-9.285 10.081-28.12 10.081zm18.57-4.775a50.217 50.217 0 0010.258 1.415 24.437 24.437 0 0018.393-7.782c4.775-5.129 7.251-12.2 7.251-21.046 0-9.02-2.476-16.094-7.251-21.222a24.939 24.939 0 00-18.747-7.782 41.63 41.63 0 00-9.727 1.415v55z" fill="#1c0c07"/><path data-name="Path 6673" d="M166.773 51.288c16.624-7.6 41.738-10.258 43.506-21.046 3.714 20.692-26.351 22.637-44.037 29.888s-13.441 4.245-10.08 12.734c0 0-3.183-7.428 11.142-11.319 11.849-2.653 27.589-2.3 28.65-8.666 1.592 9.2-7.428 11.5-17.509 12.91a6.108 6.108 0 011.061 1.415c2.122 2.83 4.952 2.476 7.958 6.19a40.44 40.44 0 007.074 6.544s4.6.354 5.129.531c.354 0 1.061 1.415 1.592 2.3.354.531.531.707-.707 1.415-1.061.707-3.007 1.592-4.244 1.415-1.945-.177-1.415-.707-3.537-2.122-1.592-1.238-7.428-3.537-12.026-7.074-3.007-2.3-1.945-2.3-5.482-3.714a24.15 24.15 0 01-7.958-5.306c2.476 13.795 7.958 7.428 19.454 30.065 1.945 3.714 7.251 7.958 8.489 8.843 3.714 5.306 17.509 25.29 23.522 26 .707.177 1.415-.354 2.122-.531 1.592-.531 2.122 2.122 2.653 4.6l1.769 8.489c.707 3.537-.884 6.72-1.945 6.544-1.061-.354-1.769-5.306-4.6-8.666s-9.373-8.843-18.393-16.271-11.142-9.373-13.971-13.087c-2.653-3.714-10.788-9.02-16.271-13.441-.531-.354-1.061-.884-1.592-1.238a41.423 41.423 0 01-5.308-.89l-.354-.177c-5.482-1.415-8.489-3.537-14.679-6.19l-.531-.177c4.952 3.007 7.251 9.55 12.38 9.727a3.671 3.671 0 012.653.707c1.238.707 1.592 6.72 2.3 9.2 1.061 2.83 1.061 6.9.177 7.958s-1.769-1.945-4.6-6.367c-3.891-6.367-15.033-11.672-17.685-13.618L135.47 93.2c-4.245-3.183-4.245-8.666-.884-10.258 5.659-2.653 13.441-1.769 19.454-1.061C137.415 62.606 149.264 55 147.496 49.7a4.531 4.531 0 00-2.3-2.476 4.706 4.706 0 01-2.122-2.653c-.177-.707.354-1.238 1.061-1.415s.707-.707.884-1.061c0-.354.354-.354.531-.177 0 0-.177-.707.177-.707 1.238-.354-.531-1.238 0-1.592a7.972 7.972 0 011.945-.531c.531-.177 1.238-.354 1.415-.707a1.766 1.766 0 01.707-.884l2.122-1.061c.354-1.945 1.061-2.3 3.36-1.945 2.653.354 6.19 2.3 7.428 5.129-11.141 8.661-10.964 18.919-10.964 18.919 1.769-11.5 12.91-18.923 14.148-19.631 4.244-2.653 8.666-5.129 13.087-7.6C196.307 21.576 215.584 12.557 211.34 0c15.386 33.956-25.821 37.67-46.866 49.873s-24.583 13.264-6.9 30.242c.177 0-16.8-15.033 9.2-28.827z" fill="#1c0c07" fill-rule="evenodd"/><path data-name="Path 6674" d="M76.224 123.797h-4.247c-4.244.177-4.952 2.83-4.244 7.428l6.72 48.281c.531 3.36.354 5.129 4.421 5.129v1.945H63.137v-1.945c3.36 0 3.007-1.415 2.653-4.245l-6.19-43.683-21.399 49.345-.177.531h-1.415l-.177-.531-21.755-49.167-5.836 42.8c-.354 3.006-.884 5.129 2.653 5.129v1.945H.177v-1.947c4.068 0 3.891-2.3 4.421-6.013l6.9-49.342c-1.415-3.183-2.653-5.659-6.9-5.659v-1.946h9.02c4.6 0 4.6.707 6.544 5.129l19.454 45.1 21.576-49.7.177-.531h14.855z" fill="#1c0c07" fill-rule="evenodd"/><path data-name="Path 6675" d="M123.09 213.639l-3.183 13.971h-1.238l-.177-3.537a11.417 11.417 0 00-.707-3.36 6.9 6.9 0 00-4.6-4.245 13.792 13.792 0 00-3.891-.531 17.247 17.247 0 00-9.9 3.007 24.765 24.765 0 00-8.489 11.142 28.753 28.753 0 00-2.476 12.026 14.124 14.124 0 003.537 9.9 13.182 13.182 0 009.727 3.891c5.659 0 10.434-2.653 14.325-8.135h1.415c-4.6 7.251-10.434 10.788-17.862 10.788s-12.557-2.83-15.563-8.489a17.961 17.961 0 01-2.122-8.666 26.491 26.491 0 013.891-13.971 28.51 28.51 0 0110.254-10.252 27.321 27.321 0 0113.441-3.891 19.135 19.135 0 017.074 1.592 11.056 11.056 0 002.476.707q1.326 0 3.183-2.122h.884zm13.971-1.061l-8.843 30.773a94.422 94.422 0 016.365-8.843c3.183-3.714 6.19-5.659 8.843-5.659 2.3 0 3.537 1.238 3.537 3.891a22.212 22.212 0 01-.884 5.129l-3.891 13.264c-.531 1.769-.707 2.653-.707 2.653 0 .707.354 1.061.884 1.061.354 0 .531-.177.884-.354a14.3 14.3 0 003.537-3.714l1.061.531a18.839 18.839 0 01-6.367 6.544 4.836 4.836 0 01-2.476.707 2.345 2.345 0 01-2.653-2.653 26.316 26.316 0 011.061-5.306l3.714-12.733a12.026 12.026 0 00.707-3.714 1.3 1.3 0 00-1.415-1.415c-1.769 0-4.244 1.945-7.074 5.659-.707.707-2.3 3.36-5.129 7.958a19.569 19.569 0 00-2.122 4.775l-1.942 6.546h-4.775l11.5-40.323c0-1.415-.707-2.122-2.3-2.122a8.121 8.121 0 00-1.769.177l-.707.177v-1.238zm40.146 26.351a19.651 19.651 0 01-2.653 9.727 20.881 20.881 0 01-6.9 7.251 17.872 17.872 0 01-8.843 2.83 8.95 8.95 0 01-7.074-2.83 10.178 10.178 0 01-2.653-7.251 18.187 18.187 0 012.83-9.727 21.365 21.365 0 017.074-7.251 17.281 17.281 0 018.666-2.83 9.464 9.464 0 017.074 2.83 10.906 10.906 0 012.476 7.251zm-5.129-2.3c0-4.068-1.769-6.19-5.129-6.19-3.537 0-6.544 2.653-9.2 7.6a26.654 26.654 0 00-3.36 12.38q0 6.367 5.306 6.367c3.537 0 6.544-2.653 9.02-7.782 2.122-4.421 3.36-8.489 3.36-12.38zm30.242 14.149c-4.244 5.129-8.843 7.6-13.795 7.6a9.374 9.374 0 01-6.9-2.476q-2.653-2.387-2.653-6.9a18.775 18.775 0 012.83-9.9 23.659 23.659 0 017.081-7.424 16.635 16.635 0 019.02-3.007c4.6 0 6.9 1.769 6.9 5.129a4.669 4.669 0 01-1.238 3.36 3.113 3.113 0 01-2.3 1.061c-1.592 0-2.3-.707-2.3-2.3a3.027 3.027 0 011.238-2.3c.707-.707 1.061-1.238 1.061-1.769 0-1.238-1.061-1.768-3.183-1.768-4.6 0-8.312 2.83-11.319 8.489a20.156 20.156 0 00-2.653 9.727c0 4.6 2.3 7.074 6.9 7.074 3.36 0 6.72-1.945 10.257-5.659zm31.126-11.849a19.651 19.651 0 01-2.653 9.727 20.88 20.88 0 01-6.9 7.251 17.872 17.872 0 01-8.843 2.83 9.2 9.2 0 01-7.074-2.83 10.178 10.178 0 01-2.653-7.251 18.187 18.187 0 012.83-9.727 21.365 21.365 0 017.074-7.251 17.281 17.281 0 018.666-2.83 9.2 9.2 0 017.074 2.83 10.906 10.906 0 012.476 7.251zm-5.129-2.3c0-4.068-1.769-6.19-5.306-6.19s-6.544 2.653-9.2 7.6a26.653 26.653 0 00-3.36 12.38q0 6.367 5.306 6.367c3.36 0 6.544-2.653 9.02-7.782a25.028 25.028 0 003.537-12.38zm22.815-24.051l-10.965 37.847a14.518 14.518 0 00-.707 3.537.938.938 0 001.061 1.061 1.911 1.911 0 001.238-.531 13.673 13.673 0 003.36-4.068l.884 1.061c-3.36 4.775-6.367 7.251-9.02 7.251-1.945 0-2.83-.884-2.83-2.83a23.893 23.893 0 011.061-4.775l8.489-29.888a31.806 31.806 0 001.061-4.244c0-1.238-.884-1.769-2.476-1.769a12.688 12.688 0 00-2.3.177v-1.238zm26.351 16.271l-6.9 24.582v.707c0 .707.354 1.061.884 1.061.884 0 2.3-1.415 4.421-4.245l1.061.707c-3.007 4.421-6.013 6.72-8.843 6.72a2.345 2.345 0 01-2.653-2.653 13.079 13.079 0 01.707-4.068l.707-2.476c-4.775 6.19-9.02 9.2-12.734 9.2a5.086 5.086 0 01-4.421-2.3 9.05 9.05 0 01-1.415-4.952 22.17 22.17 0 013.183-10.965 28 28 0 017.6-8.666 12.123 12.123 0 016.9-2.653c2.653 0 4.421 1.415 5.129 4.421l1.238-3.714zm-11.319 1.592a6.626 6.626 0 00-4.245 1.945c-2.3 1.769-4.068 4.6-5.836 8.135a23.948 23.948 0 00-2.476 9.727c0 3.183 1.238 4.775 3.537 4.775s4.775-1.769 7.428-5.129c3.537-4.6 5.482-9.2 5.482-13.971 0-3.714-1.415-5.482-3.891-5.482zm27.059-9.373l-2.476 8.666h5.129l-.531 1.945h-5.306l-5.306 18.747a29.1 29.1 0 00-.884 3.891c0 .707.354 1.238.884 1.238a3.893 3.893 0 002.122-1.061 36.32 36.32 0 003.36-3.891l1.061.707c-3.36 4.775-6.367 7.251-9.2 7.251q-3.183 0-3.183-3.183a22.481 22.481 0 011.061-5.306l5.306-18.393h-4.775l.354-1.238a15.6 15.6 0 006.544-3.537 22.9 22.9 0 004.421-6.013h1.415zm6.544 24.583a15.271 15.271 0 00-.177 2.653 6.531 6.531 0 001.945 4.775 7.261 7.261 0 004.952 1.945c2.83 0 6.367-1.592 10.788-5.129l.707.884c-5.129 4.952-9.9 7.428-14.5 7.428a8.661 8.661 0 01-6.721-2.653 9.2 9.2 0 01-2.653-6.72 19.5 19.5 0 013.006-9.9 22.442 22.442 0 017.251-7.428 18.026 18.026 0 019.2-2.83c4.421 0 6.72 1.592 6.72 4.6a7.708 7.708 0 01-2.122 5.129c-1.769 2.122-4.6 3.714-8.135 5.129a54.182 54.182 0 01-10.258 2.122zm.177-1.592a34.012 34.012 0 007.782-1.769c5.306-2.3 7.958-5.306 7.958-8.843 0-1.945-1.061-3.007-3.183-3.007-3.006 0-5.659 1.592-8.135 4.775a23.152 23.152 0 00-4.421 8.843z" fill="#1c0c07"/></svg>